<svg width="171" height="93" viewBox="0 0 171 93" fill="none" xmlns="http://www.w3.org/2000/svg">
<g filter="url(#filter0_f_45_303)">
<path d="M151.141 68.2199C138.857 74.9322 126.218 81.071 114.467 88.671C114.692 87.8789 115.115 86.2742 115.341 85.4753C120.527 84.69 124.219 80.7364 128.416 77.9914C138.4 71.3747 148.95 65.6047 158.784 58.79C159.029 59.3294 159.5 60.3947 159.732 60.9273C159.992 59.6162 160.237 58.3052 160.558 57.0146C161.083 57.3697 162.162 58.0867 162.687 58.4349C162.708 57.7043 162.762 56.2361 162.79 55.4987C164.591 54.85 166.481 54.8159 168.331 55.2939C167.88 54.8773 167 54.0511 166.55 53.6345C174.097 49.1005 181.147 43.6856 188.892 39.5407C189.029 35.8807 189.329 32.2276 189.247 28.5607C185.678 27.9325 181.781 27.359 178.67 29.6806C166.693 34.9999 154.655 40.2646 142.679 45.618C149.598 41.0362 156.136 35.9491 163.165 31.5038C164.653 31.7633 166.154 32.0296 167.662 32.3232C167.171 31.6267 166.161 30.2541 165.669 29.5577C169.081 28.4515 172.227 26.6215 175.687 25.5904C176.998 25.01 178.799 25.1875 179.761 23.9789C179.707 22.1421 179.325 20.3394 179.093 18.5367C176.418 18.8713 173.04 18.9601 173.224 22.6132C174.063 22.661 175.728 22.7225 176.568 22.7566C175.155 23.1049 173.749 23.4531 172.35 23.8082C171.934 22.9547 171.525 22.1147 171.129 21.2885C173.476 19.5199 176.022 17.9972 178.833 17.089C177.98 11.6536 176.95 6.24561 176.786 0.755591C169.702 0.0727525 165.076 6.24563 158.797 8.20538C155.597 8.87456 155.508 12.8555 153.939 15.1976C155.112 15.6142 156.32 16.058 157.508 16.5291C155.692 17.1369 153.87 17.7924 152.471 19.1649C150.253 21.2066 147.087 21.3363 144.31 21.9987C145.128 20.3735 145.9 18.7279 146.425 16.9935C149.046 16.7818 152.458 18.3182 154.252 15.7166C152.116 15.9419 150.008 16.256 147.906 16.536C148.977 14.624 150.581 13.0194 151.502 11.0255C150.485 6.10907 145.627 1.23359 140.276 2.22371C138.297 2.89289 136.782 4.42924 135.104 5.59689C132.797 4.98916 130.47 4.49066 128.341 3.43226C127.324 4.34044 126.314 5.26914 125.331 6.21146C124.335 5.4262 123.373 4.66826 122.397 3.91713C122.431 4.68874 122.499 6.22513 122.533 6.99674C120.315 6.57338 118.098 5.4603 115.839 6.17728C105.909 8.13703 95.8574 9.9944 86.3717 13.5725C80.7417 16.9116 74.4839 18.96 68.7379 22.0533C69.666 22.1284 71.5154 22.265 72.4434 22.3333C71.6041 22.982 70.7852 23.6579 69.9936 24.3476C75.2346 23.9789 79.9774 21.7255 84.9386 20.2165C90.7938 19.5541 95.564 15.7781 101.337 14.6923C101.829 14.9245 102.804 15.4092 103.296 15.6414C103.344 15.0337 103.432 13.8388 103.473 13.2311C109.677 11.7971 115.395 8.5263 121.81 8.021C126.689 7.66592 131.391 6.2183 136.23 5.53546C135.868 7.76151 135.527 10.1377 133.63 11.64C134.169 11.6741 135.233 11.7288 135.759 11.7629C135.759 12.3365 135.759 13.4563 135.745 14.0231C137.315 14.8493 138.843 15.7166 140.365 16.6452C135.281 17.1301 130.402 18.7825 125.877 21.1246C127.938 21.4729 130.054 21.6095 132.135 21.9441C125.707 24.0404 119.408 26.4781 113.027 28.6905C112.638 28.3764 111.86 27.7481 111.485 27.434C113.3 27.2633 114.385 26.4508 114.706 24.9895C111.075 25.6177 107.964 27.755 106.121 30.9507C104.306 30.1586 102.504 29.3596 100.689 28.629C101.269 27.5501 101.842 26.4849 102.416 25.406C105.036 27.2292 107.616 24.6549 109.656 23.0298C107.117 23.6989 104.62 24.5115 102.088 25.1671C102.19 25.2558 102.293 25.3172 102.395 25.3924C95.7414 27.3726 89.1833 29.9469 82.9801 33.0675C83.4851 33.3679 84.4882 33.9756 84.9932 34.2761C89.8998 32.0364 94.6905 29.503 99.9383 28.1237C99.4811 28.827 98.553 30.2405 98.0889 30.9438C99.8018 30.4727 101.549 30.0561 103.316 29.7352C103.296 30.3156 103.241 31.4696 103.214 32.0569C97.8433 34.9931 91.5172 36.4133 86.9177 40.6469C87.7093 40.7152 89.2993 40.8518 90.0841 40.9133C92.1996 43.0301 90.2956 45.4132 88.6988 47.1203C90.398 45.4269 90.9508 41.6986 87.757 41.562C87.3544 41.1591 86.5287 40.3534 86.1192 39.9368C82.4 41.9171 78.7422 43.9997 74.9343 45.7956C75.2004 47.0042 75.528 48.2129 75.8965 49.4283C75.1936 48.5065 74.4498 47.5914 73.7332 46.731C64.7116 51.7021 55.881 57.0692 47.8421 63.5357C43.5223 66.4719 38.9092 71.2177 33.2246 69.2238C33.9548 69.9203 34.6918 70.6236 35.4425 71.3406C33.0676 72.6038 30.6859 73.8807 28.5909 75.5946C22.5446 80.2652 15.8296 84.3622 11.2164 90.6034C8.77333 93.7513 5.93442 96.5646 3 99.2618C7.80426 99.3847 11.6736 96.7421 15.6044 94.4C17.1125 95.4174 16.4642 97.0289 16.1503 98.5107C19.6784 97.2543 22.6333 94.8028 26.2024 93.683C28.8297 92.966 31.0135 90.9244 32.2282 88.5208C32.8424 88.4662 34.0844 88.35 34.7054 88.2954C32.6036 92.249 28.2429 93.8947 24.7898 96.3734C21.3095 98.8385 17.5698 101.133 14.9834 104.615C24.1415 100.238 32.2487 94.0654 41.2703 89.4631C43.8772 87.9199 46.2725 86.0011 49.0159 84.6832C37.0598 93.9835 24.3462 102.519 13.5708 113.246C9.33975 116.531 11.7214 122.424 13.9529 126.159C15.7682 125.353 17.5902 124.554 19.3168 123.557C19.2827 125.025 19.2963 126.493 19.3509 127.982C22.8654 127.156 22.92 123.503 24.9604 121.195C24.4486 122.28 23.8958 123.345 23.3021 124.411C23.4249 127.477 25.247 130.413 24.9399 133.431C22.6197 135.425 19.89 136.838 17.3719 138.552C17.795 138.743 18.6344 139.146 19.0643 139.344C24.278 138.504 28.625 135.056 33.3065 132.782C30.1059 136.907 25.9977 140.15 21.5551 142.827C23.3158 143.496 25.0696 145.449 27.0964 144.554C30.9589 142.977 34.3642 140.492 37.9742 138.45C36.9438 137.139 37.1007 135.718 37.9742 134.387C40.001 134.53 42.0346 134.769 44.0887 134.933C48.0605 135.637 50.2101 131.123 53.1991 129.32C52.9944 130.775 52.8306 132.243 52.6941 133.731C53.8815 131.949 54.5435 129.921 55.1918 127.92C57.5666 126.801 59.9142 125.626 62.4323 124.841C61.9273 124.37 60.9105 123.407 60.4055 122.922C63.572 120.293 67.8712 120.088 71.8156 120.041C73.7742 120.129 75.3164 119.337 76.4493 117.692C74.2655 117.616 72.0818 117.548 69.9117 117.487C70.5054 116.401 70.9626 115.233 71.802 114.325C73.3101 112.4 75.5963 114.585 77.4115 114.837C77.5343 114.011 77.7595 112.352 77.8824 111.512C80.8577 109.969 83.8468 108.412 86.4468 106.247C86.8153 106.794 87.566 107.907 87.9345 108.453C87.8458 107.599 87.6683 105.885 87.566 105.025C89.9067 103.857 92.2815 102.28 95.0249 103.14C95.7073 101.529 96.4238 99.9173 97.1609 98.3332C97.8296 98.9409 98.5121 99.5554 99.2081 100.184C105.889 96.4553 112.611 92.4881 119.899 90.1391C118.725 91.3955 117.763 92.9934 116.084 93.6352C110.891 95.5608 106.606 99.1798 101.678 101.624C99.563 103.024 96.7173 104.178 96.26 106.992C99.1262 106.787 101.849 105.872 104.367 104.506C104.354 103.475 104.347 102.464 104.354 101.467C111.246 100.614 117.197 96.6875 123.966 95.3423C123.789 96.6056 123.618 97.8961 123.455 99.1867C123.912 98.9545 124.833 98.4902 125.29 98.2581C125.243 95.8408 126.164 93.881 128.45 92.8499C129.712 93.9698 130.968 95.1443 132.258 96.2915C131.821 95.0146 131.398 93.7513 130.982 92.4812C133.425 91.0267 135.615 88.63 138.652 88.5959C144.685 88.4866 149.557 84.3828 154.887 82.1021C160.306 79.9648 165.117 76.6462 170.214 73.867C174.868 71.1903 179.918 68.9301 183.795 65.1199C186.326 62.689 185.275 58.8036 186.893 55.9357C187.923 54.0784 188.503 52.0231 188.66 49.9199C175.742 55.0617 163.492 61.8082 151.147 68.1995L151.141 68.2199ZM158.674 16.3379C161.002 17.8197 162.032 20.3121 162.769 22.8659C160.572 21.2339 158.674 19.2468 158.674 16.3379ZM156.197 12.1249C157.685 10.1173 159.609 9.40034 161.786 10.7592C161.281 11.8312 160.79 12.9101 160.299 14.0095C158.913 13.4154 157.535 12.7804 156.204 12.1249H156.197ZM133.104 21.2544C134.332 20.394 135.602 20.3121 136.885 21.0086C137.772 23.2278 131.378 23.7194 133.104 21.2544ZM117.675 36.8913C118.794 35.949 120.889 36.6797 121.305 38.0659C121.005 40.2714 116.651 38.8579 117.675 36.8913ZM43.7339 131.833C42.8808 130.454 44.3617 128.754 45.8016 128.808C47.883 129.512 45.3171 133.404 43.7339 131.833ZM48.5382 68.6024C51.65 65.7549 55.4784 63.8771 58.7472 61.2414C57.3687 65.912 52.6122 67.1343 48.5382 68.6024ZM63.5378 68.0766C61.668 68.6365 61.0061 68.0219 61.5588 66.2534C63.4082 65.7071 64.0633 66.308 63.5378 68.0766ZM79.1858 51.7909C77.3705 52.4259 76.77 51.8456 77.3706 50.0292C79.1926 49.36 79.8 49.9404 79.1858 51.7909ZM82.2089 49.8517C80.3869 50.8349 80.0252 48.0148 81.6971 47.6665C83.4782 46.6218 83.9013 49.5376 82.2089 49.8517ZM102.504 96.1139C105.459 92.3856 110.175 90.7809 114.426 89.0602C111.137 92.3992 106.844 94.4956 102.504 96.1139ZM120.452 90.7946C121.83 85.7553 127.72 84.4306 131.924 82.5255C127.918 85.0246 124.13 87.8379 120.452 90.7946ZM159.323 75.6834C158.593 74.427 159.896 72.8359 161.159 72.6721C163.083 73.232 160.858 76.851 159.323 75.6834ZM173.674 68.8618C171.279 69.8247 168.959 71.0606 166.4 71.5249C168.658 69.6676 171.586 68.1312 171.818 64.8399C172.364 64.8741 173.483 64.9423 174.036 64.9765C173.927 66.2534 173.824 67.5645 173.681 68.8618H173.674Z" fill="#CB10AC"/>
</g>
<defs>
<filter id="filter0_f_45_303" x="0.8" y="-1.49688" width="190.661" height="148.482" filterUnits="userSpaceOnUse" color-interpolation-filters="sRGB">
<feFlood flood-opacity="0" result="BackgroundImageFix"/>
<feBlend mode="normal" in="SourceGraphic" in2="BackgroundImageFix" result="shape"/>
<feGaussianBlur stdDeviation="1.1" result="effect1_foregroundBlur_45_303"/>
</filter>
</defs>
</svg>
