<svg width="390" height="472" viewBox="0 0 390 472" fill="none" xmlns="http://www.w3.org/2000/svg">
<g filter="url(#filter0_f_45_122)">
<path d="M36.247 207.458C35.8868 206.233 35.1302 205.116 34.1576 204.288V198.164C36.3551 196.254 38.9489 197.623 41.3985 197.227C42.119 197.875 42.9116 198.524 43.7401 199.244H47.919C48.6395 198.596 49.396 197.947 50.1525 197.335C50.909 197.947 51.6295 198.596 52.6382 199.424C53.4307 194.957 57.0332 191.679 62.0406 190.238C60.2033 188.365 58.294 189.446 56.4208 189.013C55.5922 188.149 54.6195 187.14 53.4667 185.915V181.736C56.709 180.187 57.3574 176.261 59.8431 173.487V167.543C61.9325 165.561 63.9499 163.616 66.0753 161.599V151.764C67.8045 149.554 67.8405 147.009 66.1834 144.127C66.5797 142.83 67.3002 141.821 68.3089 140.885C68.3809 139.84 67.5523 138.327 66.2915 136.778V130.87C67.048 129.969 67.5884 129.285 68.1287 128.636C67.1561 127.7 66.3996 126.979 65.3909 126.042C60.3835 129.429 54.3674 130.113 47.5587 129.609C46.9823 127.519 46.1538 125.79 44.7488 124.349C44.7488 122.656 44.7488 120.963 44.7488 119.198C48.027 110.84 52.7463 110.84 60.8158 111.416C61.5002 112.065 62.0046 112.569 62.7611 113.29C63.4095 112.821 64.094 112.281 64.9946 111.633C65.607 112.137 66.3275 112.677 67.2281 113.398H70.9026C74.6132 116.964 78.1075 120.315 81.746 123.809C82.7547 123.016 83.4752 122.44 84.3398 121.756C89.059 120.459 90.1397 124.529 94.4267 125.862C99.362 122.368 103.145 117.397 108.044 113.506C109.953 113.434 110.205 114.262 113.087 115.559C114.528 115.559 118.887 115.559 121.121 115.559C121.409 114.515 121.661 113.578 122.31 111.164C123.535 110.084 125.876 108.03 128.038 106.121V100.537C126.813 99.1321 125.948 98.0874 125.084 97.1147C124.147 97.8713 123.426 98.4837 122.382 99.3122C122.057 98.1234 121.805 97.1868 121.517 95.998C129.695 95.5297 122.418 86.1633 131.856 89.4055C132.288 90.5943 132.757 91.7831 133.153 92.8638C134.054 92.9359 134.738 92.9719 135.531 93.044C136.251 92.3955 137.044 91.7111 137.8 91.0626C138.953 92.9359 140.142 94.8452 140.754 95.8539C143.204 98.1595 145.798 95.998 147.383 98.0514C148.968 100.105 151.165 99.0601 153.147 98.8799C153.531 97.1508 153.111 95.5056 151.886 93.9446C152.895 92.9719 153.903 92.0353 154.912 91.0626C155.668 91.7111 156.425 92.3595 157.181 93.0079C158.514 90.234 160.82 87.8564 160.28 83.9298C159.631 83.2453 158.911 82.5248 158.19 81.8043V71.6094C159.955 69.9162 161.721 68.223 163.486 66.5659C164.242 67.2144 164.999 67.8628 165.719 68.5112C166.26 68.0069 166.764 67.5026 167.34 66.9622C169.142 67.0703 169.754 68.7274 171.411 69.9522C169.106 70.3485 167.124 70.6727 165.215 70.9969C164.098 72.582 164.747 74.2392 164.783 76.1124C165.647 76.3646 166.62 76.6168 167.773 76.941C170.51 83.7496 177.427 85.3347 185.209 84.6502C186.505 83.2093 188.703 82.2366 188.199 79.7509C190.504 78.8503 189.748 76.2205 191.189 74.8155C191.909 74.7795 192.594 74.7075 193.278 74.6714C198.033 79.3546 186.902 78.9223 196.664 85.9111V88.1446C199.871 88.757 201.924 90.7384 204.121 93.0079H211.182C213.704 89.9459 216.982 86.9198 221.053 85.3707C222.566 83.8577 226.06 85.8751 227.537 82.9571H240.975C241.875 84.0739 243.172 85.695 244.181 86.9198H249.116C249.909 86.2353 250.665 85.5509 251.458 84.8304H255.276C256.681 83.8937 257.762 83.1732 258.446 82.7409C263.634 83.9658 264.931 90.0539 265.327 93.9806C264.535 94.7371 264.03 95.2054 263.31 95.8899V106.625C267.705 108.39 272.388 106.949 277.035 107.346C279.016 105.436 280.998 103.491 283.159 101.402C288.563 100.933 292.201 101.041 294.039 107.274H302.649C303.657 110.66 306.467 112.317 308.124 115.343C307.296 116.964 306.431 118.621 305.458 120.423C308.737 122.008 311.655 123.377 314.501 124.746C313.348 131.122 306.935 134.724 305.855 141.101C306.827 141.929 307.908 142.83 309.457 144.163C310.502 142.722 311.655 141.101 312.591 139.84C315.041 140.344 316.914 139.299 318.571 140.849C317.995 141.533 317.419 142.217 316.734 143.01C317.311 143.658 317.959 144.343 318.679 145.135V149.134C317.995 149.819 317.275 150.575 316.554 151.332V153.529C315.365 153.925 314.104 154.322 312.627 154.826C312.519 155.655 312.411 156.555 312.339 157.42C314.104 158.825 316.518 158.14 318.211 159.041C319.4 159.87 320.373 160.662 321.922 160.41C324.299 163.832 329.055 164.373 331.612 167.687V171.938C332.513 172.226 333.45 172.55 334.782 172.982C335.611 174.423 336.656 176.261 337.556 177.81C336.8 179.035 336.151 180.115 335.215 181.664C337.16 183.033 338.853 184.258 340.15 185.159V189.914C340.907 190.67 341.591 191.427 342.348 192.184V196.182C343.717 197.911 345.662 196.867 347.643 197.227C349.805 199.497 352.182 202.018 355.064 205.008V214.735C353.515 216.032 351.642 217.545 349.264 219.526H341.267C340.222 220.607 339.033 221.832 338.061 222.84C337.592 225.722 340.15 226.371 341.447 227.884H345.59C347.499 230.153 345.482 233.179 348.616 234.981C348.94 235.197 348.652 236.278 348.652 236.998C347.103 238.619 344.149 238.331 342.852 240.564C341.555 242.762 338.061 241.717 336.944 244.167C334.818 244.167 332.657 244.167 330.532 244.167C329.523 245.5 327.65 246.148 327.253 248.274C327.974 249.463 328.766 250.831 329.775 252.561C328.983 253.533 328.154 254.542 327.037 255.911C327.469 256.812 328.01 257.964 327.83 257.604C330.64 261.243 328.046 264.305 330.423 266.574C331.937 265.205 333.414 263.872 334.963 262.467H349.841C351.174 261.207 352.434 260.018 353.803 258.685C355.352 258.541 357.046 258.361 358.631 258.18C360.072 256.74 357.982 256.667 357.91 256.127C356.757 253.641 357.298 251.336 357.442 249.066C358.451 248.094 359.459 247.121 360.468 246.184C362.954 246.184 365.475 246.184 367.961 246.184V251.228C367.277 251.948 366.556 252.669 365.908 253.353C369.69 255.335 365.98 258.685 369.906 260.054V251.624C370.915 250.507 371.528 249.823 372.356 248.886C370.447 248.382 370.159 246.04 367.961 246.184V243.122C366.952 242.186 365.944 241.249 364.503 239.88C363.422 241.537 362.341 243.23 361.729 244.167H356.181C354.416 242.474 352.651 240.817 350.849 239.087V235.053C354.776 230.009 360.108 226.803 366.952 227.848C368.574 229.469 370.267 231.198 372.104 232.999C372.104 233.468 372.176 234.116 372.248 234.801C374.59 235.917 377.147 236.818 378.588 239.16C375.826 243.194 374.53 247.445 374.698 251.912C375.598 252.092 376.571 252.309 377.832 252.561C379.309 254.002 381.038 255.695 382.839 257.46C382.191 258.108 381.506 258.829 380.822 259.585C380.822 260.558 380.822 261.567 380.822 262.612C377.399 263.08 373.041 261.531 370.267 263.44V267.943C371.383 268.952 372.356 269.852 373.545 270.933C374.049 269.564 374.482 268.375 374.914 267.187C377.652 266.574 379.993 265.493 380.822 262.612H386.406C386.802 263.728 387.234 264.917 387.739 266.322C388.567 266.502 389.54 266.682 390.837 266.934C391.197 267.907 391.629 269.096 392.098 270.357C393.935 270.213 394.583 268.592 395.7 267.691C395.052 266.97 394.403 266.286 393.755 265.566C395.268 263.908 397.177 264.989 398.906 264.629C400.383 263.296 401.896 261.927 403.301 260.63H409.605C411.263 262.179 412.776 263.044 415.009 263.296V265.782C418.936 267.655 419.116 272.446 422.538 274.86C423.619 279.003 427.402 281.128 429.995 284.118V288.189C428.951 289.198 427.942 290.134 426.861 291.179H422.646C420.917 289.414 421.097 286.244 417.963 285.343C416.414 286.568 417.495 288.405 417.099 290.314C419.908 292.224 422.862 294.205 425.816 296.222C424.52 297.447 423.511 298.42 423.907 298.06C420.845 299.717 419.44 300.473 417.315 301.626C416.054 300.437 414.577 299.032 412.74 297.231C412.055 297.627 410.938 298.312 409.497 299.14H402.545C402.941 296.763 405.102 296.042 406.183 294.565C404.958 292.404 403.733 290.206 402.473 287.973C402.941 287.468 403.661 286.748 404.31 286.064V279.903C402.545 278.174 402.256 280.588 401.032 280.912C399.555 280.984 397.861 281.056 395.844 281.164V288.693C394.547 288.945 393.575 289.126 392.422 289.342C390.657 292.764 389.432 296.33 383.74 295.286C383.271 294.385 382.479 292.836 381.686 291.287C381.398 291.575 381.074 291.827 380.786 292.116V285.883C378.192 284.55 375.526 284.947 372.86 285.379C372.356 286.712 371.924 287.865 371.347 289.522C370.483 287.721 369.798 286.388 369.258 285.271C366.556 286.64 363.926 287.973 361.549 289.198C359.207 288.765 357.766 285.163 355.208 288.189C357.478 290.35 359.747 292.512 362.017 294.673C365.295 295.286 367.781 298.204 371.455 297.555C373.005 298.96 371.888 300.762 372.356 302.671C373.401 302.995 374.626 303.391 375.85 303.788C377.472 306.093 376.139 309.876 376.535 312.506C374.842 314.055 373.905 315.46 373.761 317.657H366.736C365.259 316.108 363.602 314.343 361.657 312.289V308.579C358.667 307.714 356.361 305.877 354.236 303.535C353.479 304.148 352.759 304.724 351.894 305.409H347.823C347.031 306.129 346.238 306.814 345.482 307.462C344.725 306.778 343.969 306.093 343.284 305.517H339.069C338.205 306.201 337.484 306.814 336.764 307.39C335.395 306.057 334.134 304.868 332.837 303.643C330.387 304.436 332.009 306.381 331.432 307.966C332.693 310.308 335.143 311.713 336.764 313.406C338.025 313.73 338.997 313.983 340.438 314.379C337.628 315.712 335.107 316.576 333.702 318.81V320.863C336.331 321.944 339.105 324.358 342.888 323.817C344.401 324.358 344.761 326.231 346.418 325.618C346.779 326.915 346.599 328.5 348.472 327.132C347.895 326.663 347.319 326.195 346.418 325.618C347.355 323.529 348.58 321.656 351.786 321.8C354.524 325.438 355.461 330.013 354.92 335.345C352.038 336.606 349.336 337.759 346.671 338.912C346.635 339.632 346.31 340.497 346.562 341.001C348.94 342.586 348.4 345.864 350.705 347.449C349.3 349.106 347.391 348.026 345.518 348.386C344.833 347.053 344.149 345.684 343.428 344.279H341.015C339.25 347.521 335.359 348.206 332.297 350.079C331.396 348.422 331.216 346.405 329.523 345.144C330.532 344.171 331.54 343.234 332.585 342.226H334.999C335.251 339.344 338.637 337.723 337.736 334.733C333.666 333.04 328.37 334.48 324.047 334.012C320.697 338.803 316.842 334.156 312.483 334.012C312.159 337.398 312.267 340.353 312.375 343.307C326.641 347.665 310.646 353.141 312.267 361.607C310.178 363.66 307.548 362.219 305.206 362.616C303.009 360.382 298.758 360.742 297.641 357.14C304.81 355.123 302.757 358.545 304.198 350.62C301.856 350.475 300.487 350.367 298.722 350.259C294.651 346.333 288.959 344.387 283.664 341.793C282.403 343.126 281.43 344.135 280.241 345.36C281.286 352.024 279.341 356.275 272.028 358.365C271.235 357.212 270.118 355.555 269.362 354.51H265.723C265.507 353.429 265.255 352.277 265.111 351.448C267.993 348.53 268.966 351.772 270.947 352.313C271.199 351.376 271.451 350.475 271.703 349.503C266.408 346.369 259.419 345.18 255.853 340.208H251.169C250.629 340.713 250.125 341.217 249.332 341.938C247.927 342.082 246.234 342.226 244.577 342.406C238.921 346.513 236.435 352.277 231.284 356.564C228.258 355.843 226.096 354.114 226.457 350.511H217.162C214.821 352.925 212.263 352.565 210.534 350.439C207.904 350.331 206.571 347.774 203.977 348.458C202.104 350.944 203.365 355.014 203.041 357.536C204.085 358.545 204.59 359.013 205.13 359.518V363.841C200.663 364.417 201.095 366.542 200.267 370.397C198.574 370.829 194.287 370.685 191.297 370.937C190.54 371.586 189.531 372.486 188.307 373.603V378.322C189.531 378.791 190.756 379.259 192.017 379.727C191.405 380.772 190.792 381.781 189.928 383.258C190.54 384.122 191.333 385.167 192.233 386.428C191.333 387.112 190.216 387.905 188.811 388.95C185.317 388.301 182.903 391.76 179.697 391.94C179.12 395.686 182.291 395.542 181.498 399.073C180.309 399.253 179.337 399.397 178.472 399.505C177.319 398.424 176.31 397.451 175.266 396.443V391.543C173.284 390.03 170.835 388.121 168.637 386.428V381.961C167.989 381.348 167.484 380.844 166.944 380.34C167.484 378.575 169.466 378.971 170.691 378.178C172.924 376.377 175.086 371.153 175.266 367.767C175.77 367.299 176.274 366.794 177.031 366.11C176.13 364.345 175.194 362.508 174.257 360.67H171.988C170.727 362.976 170.222 364.885 167.881 366.65H159.307C156.677 369.172 154.408 371.334 152.066 373.567C153.723 376.629 156.929 378.647 155.849 383.906C156.605 384.699 157.29 385.419 158.046 386.248V394.533C157.109 395.29 156.065 396.191 154.768 397.235C153.975 396.551 153.039 395.686 151.85 394.678C152.606 388.157 151.165 382.357 147.347 377.278C149.58 372.775 151.273 367.587 155.704 364.021V359.41C155.152 358.881 153.459 358.617 150.625 358.617C149.832 357.932 149.076 357.248 148.283 356.528H131.244C125.948 350.98 129.911 342.694 127.137 336.174H120.364C119.5 332.751 116.005 330.482 117.554 327.132C115.825 325.186 113.916 326.267 111.935 325.835C110.53 323.565 102.568 317.981 100.371 320.719C101.055 321.44 101.74 322.16 102.424 322.881V326.951C101.343 328.14 101.343 328.14 92.3372 327.492C91.9049 326.303 91.4726 325.15 90.9323 323.745C89.2391 325.258 87.7261 326.591 86.3211 327.888H79.9088C78.0715 326.519 79.3324 324.682 78.72 323.169C79.5125 322.34 80.197 321.584 80.9895 320.755V312.686C80.3411 312.001 79.6206 311.281 78.8641 310.524C79.3324 304.796 75.2976 300.834 71.7312 297.267H62.7611C61.2841 295.43 58.3661 294.565 59.8431 291.359H52.9984C51.5935 290.458 50.4767 289.774 49.1798 288.945C44.8569 291.107 40.8221 294.061 35.0222 293.196C31.3117 290.603 31.4558 285.415 27.457 284.01C27.6011 279.975 31.5278 279.579 31.9601 276.481C32.2843 274.139 34.3377 272.014 35.7427 269.564C32.9688 267.151 33.5812 265.097 37.1476 262.792C37.724 263.26 38.4445 263.836 39.093 264.341C42.2631 261.279 45.5053 258.181 48.8916 254.938C48.5674 252.417 51.3773 251.516 52.9984 249.427C53.4307 243.23 52.422 240.168 50.0804 234.008C49.7922 233.828 48.0991 232.603 46.8382 231.702V226.875C50.1165 224.462 48.6755 220.031 48.9637 216.68C48.1711 215.852 47.4867 215.095 46.7302 214.303V210.376C44.5327 208.323 41.5066 210.556 39.2731 207.386H36.1029L36.247 207.458ZM286.618 315.315C291.013 315.099 292.634 318.594 295.3 320.935C294.615 321.584 294.111 322.052 293.39 322.736C297.101 325.114 293.678 329.185 296.416 332.031C300.523 332.571 303.081 330.374 305.819 329.185C305.026 327.852 304.234 326.519 303.441 325.186C303.765 324.934 304.09 324.682 304.414 324.466C302.108 322.448 299.767 320.395 297.317 318.233V312.433C294.291 312.073 292.814 309.119 289.86 309.768C288.959 311.065 286.942 311.641 286.618 315.315ZM317.851 313.73H312.807C311.907 312.578 310.682 310.992 309.493 309.443C307.44 311.173 308.557 312.974 308.052 315.135C312.699 315.135 307.692 319.963 314.357 320.539C314.681 321.872 314.897 322.809 315.149 323.817C316.374 323.745 317.347 323.709 318.211 323.673C319.292 321.223 320.301 318.99 321.201 316.937C319.832 315.604 318.86 314.631 317.887 313.694L317.851 313.73ZM350.993 292.08C348.94 291.071 346.815 290.963 345.59 289.306C344.869 289.918 344.149 290.531 342.744 291.719C341.663 290.062 340.582 288.477 339.646 287.072C337.989 288.441 336.98 289.27 336.223 289.882C337.232 291.755 338.133 293.413 338.889 294.853C341.123 295.826 343.176 296.727 343.861 297.051C346.635 295.106 348.76 293.629 350.957 292.08H350.993ZM312.303 282.101C310.646 284.046 309.601 285.307 308.268 286.892V290.278C312.231 296.042 313.636 291.611 316.914 290.531C316.77 288.225 316.662 286.928 316.626 285.883C315.293 284.731 314.284 283.83 312.339 282.101H312.303ZM286.906 258.072C286.438 255.947 287.446 254.218 286.113 252.777C284.132 252.417 282.151 251.66 280.385 253.389V254.902C281.574 256.451 282.583 257.748 283.303 258.685C284.744 258.469 285.393 258.361 286.906 258.108V258.072ZM256.645 247.265C255.456 246.076 254.556 245.14 254.232 244.815C252.719 245.68 251.242 246.473 250.485 246.905C250.125 250.219 251.566 250.543 253.655 250.327C254.484 249.463 255.42 248.526 256.609 247.265H256.645ZM329.739 298.384C327.722 297.447 325.776 296.547 323.615 295.538C323.435 296.547 323.255 297.447 323.074 298.384C325.092 299.321 327.037 300.221 329.199 301.23C329.379 300.221 329.559 299.321 329.739 298.384ZM342.456 281.993C343.644 282.929 344.329 284.442 345.77 284.731C346.923 283.794 347.931 282.929 348.976 282.065C346.707 280.372 344.581 280.336 342.456 281.993ZM301.136 337.398C306.287 338.335 306.287 338.263 307.8 336.858C305.891 335.849 304.017 335.849 301.136 337.398ZM295.336 269.78C293.895 268.303 292.49 268.303 291.049 269.78C292.49 271.257 293.895 271.257 295.336 269.78ZM352.074 278.967C353.623 277.598 353.623 276.229 352.074 274.86C350.525 276.229 350.525 277.598 352.074 278.967ZM280.025 315.027C279.773 314.595 279.521 314.163 279.269 313.694C278.152 314.307 278.836 314.919 279.269 315.748C279.521 315.532 279.737 315.279 280.025 315.027ZM309.998 333.436C309.745 333.003 309.493 332.571 309.241 332.103C308.124 332.715 308.809 333.328 309.241 334.156C309.493 333.94 309.709 333.688 309.998 333.436Z" fill="#CB10AC" fill-opacity="0.4"/>
<path d="M263.166 417.013V425.154C260.968 427.1 258.375 425.731 255.889 426.127C254.952 425.262 253.944 424.362 252.827 423.353C253.331 418.021 247.783 414.383 248.108 408.727C247.603 408.187 246.883 407.43 246.09 406.602C247.531 405.953 248.972 405.341 250.413 404.692C249.044 403.395 247.783 402.207 246.234 400.694C246.162 399.685 246.09 398.388 245.982 396.803C243.785 395.074 241.335 393.164 239.678 391.868V378.214C238.201 376.737 236.76 375.296 235.283 373.819V369.821C230.78 366.47 234.022 364.057 238.633 364.705C239.462 365.642 240.398 366.686 241.623 368.091V372.09C243.064 373.135 244.721 374.324 245.946 375.224C246.126 376.737 245.91 377.025 246.054 377.962C248.396 379.223 247.747 382.213 250.125 384.086V392.192C250.989 393.02 251.494 393.489 252.25 394.209V399.577C255.601 406.133 258.735 411.537 263.13 417.013H263.166Z" fill="#CB10AC" fill-opacity="0.4"/>
<path d="M19.0994 318.954V329.041C15.3889 338.443 8.07588 335.993 -1.00231 336.137C-6.55009 330.986 -8.81963 320.755 -3.74017 314.234C-2.51534 313.766 -1.00231 313.154 -1.5787 313.37C2.45605 310.812 5.66223 311.893 7.60756 311.677C13.4435 313.37 16.5416 315.856 19.0994 318.954Z" fill="#CB10AC" fill-opacity="0.4"/>
<path d="M181.858 50.1027C181.966 52.6604 183.695 52.2282 185.713 51.7959C185.893 50.9673 186.073 50.0667 186.325 48.9499C189.675 45.6717 190.396 50.4629 193.314 50.8232C191.981 53.1288 191.152 54.1375 190.432 56.2269H186.974C186.325 60.1896 183.407 61.8107 180.345 64.8367C179.985 63.2517 179.769 62.3511 179.516 61.1983C177.283 59.1088 175.302 56.2989 171.375 55.6505V49.1661C171.591 48.9139 172.203 48.1574 172.852 47.2928C171.483 44.699 170.042 41.9972 168.493 39.0792C170.33 37.6382 171.987 36.3774 173.284 35.3687V30.5054C174.113 30.1811 175.013 29.8569 176.49 29.2805C177.931 31.0817 179.408 32.955 181.606 35.7649V42.3214C182.29 43.15 182.903 43.9065 183.983 45.3114C183.731 46.8245 184.452 49.5984 181.966 50.4269C181.606 49.13 181.786 47.545 179.913 48.9139C180.489 49.3822 181.065 49.8505 181.858 50.1387V50.1027Z" fill="#CB10AC" fill-opacity="0.4"/>
<path d="M368.141 167.615V163.148C366.268 162.823 364.286 162.463 362.377 162.103C360.72 157.708 362.233 151.908 361.729 147.333C363.674 145.46 365.439 143.803 367.204 142.109H373.509C374.806 143.334 376.066 144.559 377.327 145.748C378.3 146 379.273 146.216 380.209 146.468C381.182 148.486 382.191 150.467 383.127 152.412C381.686 156.015 377.255 158.284 374.301 161.743V168.155C371.924 168.623 369.87 169.452 368.141 167.615Z" fill="#CB10AC" fill-opacity="0.4"/>
<path d="M10.5615 243.554V237.106C12.9751 234.296 15.2447 237.502 17.0459 239.267V243.194C18.4509 245.356 20.6484 246.22 23.2061 246.869V257.676C22.2334 258.613 21.2247 259.549 20.2161 260.522H18.1266C17.3701 261.206 16.5776 261.891 15.8211 262.575C13.0111 262.575 10.1652 262.575 7.31928 262.575C5.48202 259.441 3.57272 256.307 4.25718 251.624C6.74288 249.21 6.67083 244.815 10.5615 243.518V243.554Z" fill="#CB10AC" fill-opacity="0.4"/>
<path d="M146.518 466.979C145.113 466.979 143.708 466.979 142.267 466.979C140.862 465.285 139.313 464.457 137.008 464.457V457.612C140.178 454.982 142.772 450.984 147.599 449.471C147.094 445.76 148.932 443.887 150.337 441.041C151.598 440.429 153.363 439.564 155.38 438.591C155.992 439.312 156.893 440.32 157.938 441.509C157.542 441.978 156.965 442.662 156.389 443.311C158.154 446.805 161.108 449.327 160.424 454.118C158.586 454.442 156.641 454.73 154.732 455.054C152.894 459.269 151.021 463.556 146.518 466.979Z" fill="#CB10AC" fill-opacity="0.4"/>
<path d="M-5.07286 274.428C-8.89146 272.734 -11.8455 271.365 -15.0156 269.961C-14.4032 269.24 -13.7908 268.556 -13.0703 267.727V263.872C-11.5933 262.395 -10.1523 260.954 -8.67531 259.477V257.496C-6.58589 256.487 -4.53248 255.479 -2.47908 254.47C1.66374 254.866 1.37555 259.333 4.04136 261.495C3.39292 262.215 2.78049 262.9 2.06 263.692C3.46496 270.249 -0.35364 271.942 -5.07286 274.428Z" fill="#CB10AC" fill-opacity="0.4"/>
<path d="M-7.84682 362.94C-6.40584 361.607 -4.31642 359.914 -3.88413 357.104C-1.7947 356.239 0.294728 355.375 2.81645 354.33C4.40153 357.248 6.92324 359.806 6.2748 363.769C3.14067 365.678 4.3655 369.064 4.0773 372.198C1.62763 372.486 -0.497815 374.324 -2.73134 375.152C-5.57728 373.567 -6.87416 370.289 -10.3325 370.505C-9.61203 368.344 -8.96358 366.362 -7.84682 362.94Z" fill="#CB10AC" fill-opacity="0.4"/>
<path d="M33.6173 385.924C34.9863 383.366 35.8509 381.709 36.8956 379.727C39.4173 378.575 42.0471 376.521 46.2259 377.062C47.3427 378.322 48.6756 379.835 49.5042 380.808C51.2694 381.204 52.206 381.421 53.2147 381.673C55.3401 388.986 47.2706 388.337 44.2085 393.273C37.3639 395.146 37.2558 389.238 33.5813 385.924H33.6173Z" fill="#CB10AC" fill-opacity="0.4"/>
<path d="M120.833 379.115H134.342C134.594 376.953 134.774 375.332 134.954 373.783C137.152 372.018 139.746 373.711 142.087 372.667C143.132 373.855 144.033 374.864 145.257 376.233C139.421 380.988 138.449 387.148 130.343 389.598C129.407 388.986 128.326 388.265 126.957 387.328H122.814C122.094 386.428 121.229 385.383 119.716 383.582C119.644 382.861 119.464 380.016 120.797 379.079L120.833 379.115Z" fill="#CB10AC" fill-opacity="0.4"/>
<path d="M29.8349 142.145C29.5467 139.732 27.6374 135.589 25.584 132.707V126.619C31.1678 122.944 34.3019 123.377 40.318 126.331V135.085C39.3454 136.021 38.3367 136.958 37.364 137.931H34.9504C34.5901 139.011 34.1939 140.2 33.6175 141.785C32.5007 141.893 31.1678 142.001 29.8709 142.109L29.8349 142.145Z" fill="#CB10AC" fill-opacity="0.4"/>
<path d="M264.39 403.431C262.445 401.738 260.68 400.153 258.915 398.604C259.707 397.776 260.428 397.019 261.148 396.263V392.3C265.003 389.382 266.552 385.131 268.281 380.88C270.406 382.898 272.172 384.591 273.901 386.248C273.18 386.968 272.496 387.689 271.775 388.409C271.307 391.687 275.018 392.408 276.206 395.11C275.882 395.758 275.198 397.343 275.126 397.307C272.28 396.335 271.415 400.658 268.605 399.541C267.164 400.874 265.687 402.243 264.39 403.431Z" fill="#CB10AC" fill-opacity="0.4"/>
<path d="M96.4084 395.65C93.9587 394.461 91.9053 393.453 89.8159 392.444V390.138C90.8967 389.778 92.1215 389.382 93.8507 388.805C95.0395 385.635 91.5091 378.106 97.8854 379.043C100.443 378.827 101.812 375.729 104.514 377.71V390.571C103.577 391.471 102.569 392.444 103.037 392.012C99.8668 393.777 98.4618 394.533 96.4084 395.65Z" fill="#CB10AC" fill-opacity="0.4"/>
<path d="M71.659 336.642C73.2801 337.434 75.0093 338.263 76.7745 339.128C76.8105 339.776 76.8826 340.424 76.9546 341.577C78.2875 342.622 79.8726 343.883 81.2055 344.927V349.503C80.2329 350.439 79.2242 351.376 78.0714 352.457H74.0727C73.2441 353.141 72.4876 353.753 71.695 354.402C70.3261 353.069 68.4528 352.565 66.6156 351.952C66.0392 349.683 65.3907 347.413 68.1646 345.648V339.019C69.1373 338.371 70.5062 337.434 71.659 336.642Z" fill="#CB10AC" fill-opacity="0.4"/>
<path d="M-0.281738 178.999C0.474777 177.702 1.23129 176.369 2.276 174.604C1.59153 173.703 0.835014 172.694 -0.0655998 171.506C0.835014 170.785 1.87973 169.957 2.9965 169.056C4.68965 170.173 6.74305 171.037 9.69706 170.605C10.7778 171.938 12.0747 173.487 13.0834 174.748H17.8746C19.0995 177.125 19.0995 177.125 18.8473 180.151C17.4063 181.628 15.533 180.548 13.8759 180.908C13.1194 180.224 12.3629 179.539 11.6064 178.855H7.13931C6.74304 179.935 6.34678 181.088 5.87846 182.421C2.31203 184.114 1.23129 181.376 -0.281738 178.999Z" fill="#CB10AC" fill-opacity="0.4"/>
<path d="M119.788 351.52C120.472 352.241 121.193 352.961 121.877 353.646C122.345 356.203 120.004 357.068 118.779 358.581C115.285 358.113 114.492 361.643 111.502 362.868C109.016 362.4 107.251 360.779 106.675 357.752C109.737 356.311 112.619 354.907 115.933 353.357C114.996 351.556 114.132 349.899 113.195 348.134C114.492 345.684 116.906 344.279 118.779 342.406C119.824 343.379 120.796 344.351 121.877 345.36V349.431C121.229 350.079 120.508 350.8 119.824 351.52H119.788Z" fill="#CB10AC" fill-opacity="0.4"/>
<path d="M9.48099 268.772C12.0027 271.222 16.5058 273.383 20.1803 272.843C21.3691 273.995 22.3778 274.932 23.3865 275.905V279.939C21.6573 281.705 19.6759 281.525 15.9654 279.075H9.26483C7.96795 277.49 6.41891 275.653 4.29346 273.059V269.564C5.95059 268.051 7.78784 269.096 9.44497 268.736L9.48099 268.772Z" fill="#CB10AC" fill-opacity="0.4"/>
<path d="M301.784 378.575V372.054C305.134 371.154 307.62 367.587 311.762 369.208C312.231 370.361 312.735 371.478 313.203 372.631C313.203 372.631 318.283 371.37 318.319 371.334C319.472 373.531 318.715 375.837 318.823 378.106C317.202 379.655 316.842 379.583 313.6 377.134H308.916C307.98 378.25 306.719 379.835 305.458 381.349C304.053 380.268 303.044 379.511 301.748 378.539L301.784 378.575Z" fill="#CB10AC" fill-opacity="0.4"/>
<path d="M342.456 159.437C343.464 158.465 344.473 157.528 345.59 156.447H352.11C352.939 157.204 353.947 158.14 355.136 159.185V165.561C353.263 168.84 349.012 169.056 345.518 168.443C344.509 167.471 343.5 166.498 342.492 165.561C342.492 163.508 342.492 161.455 342.492 159.437H342.456Z" fill="#CB10AC" fill-opacity="0.4"/>
<path d="M71.623 323.925C70.8665 323.241 70.146 322.592 69.4255 321.944C68.633 322.628 67.8765 323.313 67.228 323.853H62.6889C62.4007 322.989 62.1125 322.088 62.1125 322.124C65.9672 318.45 69.3535 315.207 73.064 311.677C75.8379 312.145 76.7025 315.532 79.6205 316.829C78.3236 319.638 76.7745 321.115 76.1261 323.889H71.659L71.623 323.925Z" fill="#CB10AC" fill-opacity="0.4"/>
<path d="M327.469 390.355C328.154 386.104 325.128 383.222 323.435 379.98C325.92 379.295 324.263 375.476 327.217 375.044C329.343 375.044 331.9 377.71 335.107 383.222C335.791 383.222 336.475 383.294 337.412 383.33C337.7 384.122 337.988 385.023 338.241 385.78C336.187 389.454 332.153 389.67 329.307 391.579C328.514 391.075 327.974 390.751 327.397 390.427L327.469 390.355Z" fill="#CB10AC" fill-opacity="0.4"/>
<path d="M161.396 413.806H156.929C156.533 412.654 156.101 411.501 155.56 409.988H148.896C147.563 408.691 146.554 407.754 145.401 406.674C145.509 405.845 145.654 404.944 145.834 403.72H154.948C155.776 402.927 156.281 402.459 156.785 401.954C159.847 402.891 162.189 406.926 164.602 408.655C165.107 411.753 162.549 412.365 161.36 413.806H161.396Z" fill="#CB10AC" fill-opacity="0.4"/>
<path d="M160.46 425.767V432.143C158.983 434.016 157.974 435.313 156.965 436.61C153.363 435.601 151.778 432.935 149.652 430.81C151.418 426.631 153.219 422.596 157.434 420.219C158.334 421.876 159.235 423.497 160.46 425.767Z" fill="#CB10AC" fill-opacity="0.4"/>
<path d="M288.347 361.571C290.004 366.686 296.813 367.731 290.22 372.811H283.268C281.574 369.316 283.556 365.534 280.278 363.264C280.53 360.706 282.511 360.13 283.376 358.869C284.781 359.626 286.186 360.382 288.347 361.571Z" fill="#CB10AC" fill-opacity="0.4"/>
<path d="M295.407 390.247V386.212C295.696 385.924 296.02 385.455 296.2 385.491C299.514 386.248 301.82 383.474 304.774 383.042C306.791 386.572 308.809 388.445 308.196 392.768C307.368 393.453 306.071 394.498 304.702 395.65C301.171 394.281 297.569 393.381 295.407 390.247Z" fill="#CB10AC" fill-opacity="0.4"/>
<path d="M274.117 423.821C275.234 424.65 276.891 425.911 278.08 426.811V431.387C275.738 433.224 273.144 431.531 270.911 432.539C269.758 431.351 268.821 430.342 267.633 429.117V423.281C268.965 421.984 269.722 420.219 270.334 418.166H273.072C274.657 419.679 273.541 421.48 274.117 423.821Z" fill="#CB10AC" fill-opacity="0.4"/>
<path d="M381.002 234.728V230.586C381.83 230.009 383.235 229.037 384.892 227.884H390.944C392.602 230.946 391.161 234.224 391.845 237.142C389.179 238.799 386.694 237.827 384.172 238.115C383.343 237.214 382.407 236.205 381.038 234.728H381.002Z" fill="#CB10AC" fill-opacity="0.4"/>
<path d="M390.548 346.369H386.37C384.532 344.639 382.767 342.982 381.038 341.325V338.875C382.911 338.551 384.856 338.191 386.802 337.831C387.27 336.642 387.702 335.453 388.135 334.372C388.999 334.3 389.684 334.228 390.44 334.156C391.557 335.994 392.71 337.867 393.899 339.812C393.755 342.154 391.521 344.243 390.584 346.405L390.548 346.369Z" fill="#CB10AC" fill-opacity="0.4"/>
<path d="M367.277 333.976C367.853 332.788 368.501 331.383 369.438 329.509C374.59 331.779 382.947 335.129 375.995 339.992C374.049 338.804 372.032 337.867 369.438 338.263C368.79 338.804 367.997 339.452 367.169 340.173C366.196 338.407 365.223 336.642 364.106 334.589C365.151 334.409 366.124 334.192 367.313 333.976H367.277Z" fill="#CB10AC" fill-opacity="0.4"/>
<path d="M36.2472 207.458V214.663C35.2745 215.528 34.2658 216.464 33.1491 217.437H28.4298C26.7367 215.131 29.1143 211.781 25.8 210.376C26.8087 209.331 27.7814 208.359 28.718 207.422H36.2832L36.2472 207.458Z" fill="#CB10AC" fill-opacity="0.4"/>
<path d="M30.8795 117.541H26.3404C26.2323 114.623 23.1342 113.398 23.4585 110.408C24.251 109.615 25.2237 108.643 26.3404 107.526H31.1317C32.1764 109.723 33.1491 111.705 34.0857 113.686C33.7615 115.595 31.8522 116.244 30.8435 117.577L30.8795 117.541Z" fill="#CB10AC" fill-opacity="0.4"/>
<path d="M358.631 375.008H354.308C351.714 373.567 354.452 370.469 352.146 368.884C350.057 367.443 351.174 365.353 351.318 363.48C352.795 362.075 354.668 363.12 356.325 362.76C358.018 366.146 361.477 370.361 358.595 375.044L358.631 375.008Z" fill="#CB10AC" fill-opacity="0.4"/>
<path d="M346.778 392.48C345.662 397.055 342.744 397.343 341.339 401.81C339.754 399.937 338.313 398.136 336.584 396.118C336.692 395.974 337.268 395.326 337.952 394.461C337.448 393.849 336.836 393.2 335.935 392.12C336.98 391.075 338.097 389.994 338.817 389.274C342.816 388.589 344.833 390.318 346.778 392.444V392.48Z" fill="#CB10AC" fill-opacity="0.4"/>
<path d="M259.672 432.431H264.535C265.544 433.404 266.552 434.34 267.525 435.277V439.456C266.588 440.284 265.544 441.149 264.283 442.266H259.383C259.023 438.88 258.231 435.817 259.672 432.431Z" fill="#CB10AC" fill-opacity="0.4"/>
<path d="M72.6322 416.688C72.2359 419.895 73.5688 423.245 71.8757 425.839H67.0124C66.1118 424.686 64.4186 423.929 63.7341 421.768C65.2472 419.462 67.5167 417.589 69.9664 415.68C70.903 416.04 71.8036 416.364 72.6322 416.688Z" fill="#CB10AC" fill-opacity="0.4"/>
<path d="M363.746 203.351C363.386 203.171 362.522 202.811 361.405 202.306C362.305 198.488 366.448 197.155 366.844 193.156H371.6C371.924 193.949 372.284 194.813 372.392 195.102C369.402 197.948 366.7 200.505 363.746 203.315V203.351Z" fill="#CB10AC" fill-opacity="0.4"/>
<path d="M61.9324 147.189C59.0144 150.755 56.6368 151.152 53.5747 147.405V142.794C55.5561 142.037 57.5014 141.569 58.9424 140.2C60.5995 141.569 59.4467 143.37 59.843 145.064C60.4914 145.748 61.2119 146.468 61.9324 147.225V147.189Z" fill="#CB10AC" fill-opacity="0.4"/>
<path d="M131.532 362.76C132.504 363.697 133.477 364.633 134.594 365.678V370.217C133.765 370.685 132.288 371.55 129.874 372.955C130.739 372.955 130.055 372.955 129.37 372.955C128.674 372.282 128.409 369.809 128.578 365.534C129.55 364.597 130.523 363.661 131.496 362.724L131.532 362.76Z" fill="#CB10AC" fill-opacity="0.4"/>
<path d="M395.988 114.55C395.052 115.379 394.043 116.28 392.458 117.685C392.098 116.532 391.737 115.271 391.341 114.01C388.999 112.929 389.828 110.588 389.576 108.174C390.404 107.85 391.269 107.49 392.854 106.877C393.719 108.138 394.655 109.507 396.024 111.524V114.55H395.988Z" fill="#CB10AC" fill-opacity="0.4"/>
<path d="M52.0258 168.659C50.9811 168.659 51.6656 168.659 52.4581 168.659C53.9711 171.073 53.3587 173.595 53.0705 176.08C51.4854 177.485 49.6842 176.477 48.0271 176.801C46.1898 175.612 47.1985 173.775 46.8022 171.505C47.919 170.893 49.396 170.064 51.9898 168.659H52.0258Z" fill="#CB10AC" fill-opacity="0.4"/>
<path d="M357.982 88.865C356.974 90.1258 356.217 91.1345 355.425 92.1072C359.82 95.3854 356.577 97.8351 352.11 97.1506C350.309 94.809 351.138 92.1792 351.318 89.6936C353.263 88.2886 355.461 89.2252 357.982 88.865Z" fill="#CB10AC" fill-opacity="0.4"/>
<path d="M337.376 407.971C338.277 408.835 339.033 409.556 340.15 410.6C340.222 411.573 340.294 412.87 340.438 415.176C339.538 415.716 338.061 416.545 336.548 417.409C336.007 416.905 334.999 415.932 333.918 414.923V410.6C334.783 409.952 335.899 409.087 337.34 408.007L337.376 407.971Z" fill="#CB10AC" fill-opacity="0.4"/>
<path d="M337.304 246.256C341.915 246.581 339.214 249.715 342.456 251.48C341.447 252.308 340.402 253.173 339.286 254.11C337.737 252.633 334.855 253.101 333.882 250.94C333.858 249.883 334.999 248.322 337.304 246.256Z" fill="#CB10AC" fill-opacity="0.4"/>
<path d="M265.183 370.757C265.291 372.919 265.327 374.18 265.435 376.341C264.499 376.917 263.094 377.782 261.653 378.647C261.112 378.106 260.104 377.17 259.131 376.233V371.694C260.86 370.289 262.661 371.226 265.183 370.721V370.757Z" fill="#CB10AC" fill-opacity="0.4"/>
<path d="M81.2056 441.438C81.2056 440.789 81.2056 440.141 81.2056 440.357C82.5385 438.484 83.4751 437.151 83.9795 436.466C87.5459 435.962 88.1583 438.375 89.7434 439.42C88.7707 440.357 87.7981 441.293 86.8254 442.194C84.9161 442.302 82.8267 443.311 81.2056 441.438Z" fill="#CB10AC" fill-opacity="0.4"/>
<path d="M47.9545 68.0068C49.1073 69.1956 50.188 70.3484 51.1247 71.3211C49.1073 73.2304 47.4141 74.8875 45.685 76.5086C44.7844 75.644 43.7757 74.7074 42.731 73.6987C45.6129 71.6093 43.5955 69.1956 47.9545 68.0068Z" fill="#CB10AC" fill-opacity="0.4"/>
<path d="M164.567 56.0469V61.5586C162.909 63.0717 161.072 62.0269 159.415 62.3872C157.145 60.8381 159.127 58.7127 158.19 57.3438C160.136 55.5425 161.973 56.5872 164.567 56.0469Z" fill="#CB10AC" fill-opacity="0.4"/>
<path d="M197.025 399.757V394.245C198.682 392.732 200.519 393.777 202.176 393.416C204.194 395.002 203.149 396.983 202.933 398.856C201.456 400.225 199.582 399.18 197.025 399.721V399.757Z" fill="#CB10AC" fill-opacity="0.4"/>
<path d="M10.165 386.5C11.9663 384.879 12.975 383.978 13.8396 383.222C16.7215 382.825 17.5141 385.095 19.0271 386.32C15.3526 389.958 14.7402 390.391 10.129 386.536L10.165 386.5Z" fill="#CB10AC" fill-opacity="0.4"/>
<path d="M37.3274 301.446H39.4169C41.5063 302.995 40.3535 304.976 40.2454 306.85C38.8045 308.291 36.9672 307.21 35.3461 307.57C34.3374 305.817 34.9979 303.776 37.3274 301.446Z" fill="#CB10AC" fill-opacity="0.4"/>
<path d="M14.6684 283.073V288.369C13.0473 289.918 11.21 288.873 9.58893 289.234C5.84238 285.811 11.0299 285.163 11.21 283.11H14.6684V283.073Z" fill="#CB10AC" fill-opacity="0.4"/>
<path d="M303.369 95.0615H307.152C308.124 95.9982 309.133 96.9708 310.07 97.9075V102.915C308.845 103.023 307.908 103.095 307.08 103.167C305.098 100.105 306.864 97.6193 303.369 95.0615Z" fill="#CB10AC" fill-opacity="0.4"/>
<path d="M31.2754 266.718H26.6643C24.5748 265.169 25.7276 263.188 25.8357 261.026C26.7003 260.846 27.6369 260.63 28.5375 260.45C29.9425 262.251 33.0766 263.008 31.2754 266.718Z" fill="#CB10AC" fill-opacity="0.4"/>
<path d="M82.3225 13.3217H78.0716C75.1176 11.1962 78.4319 8.89066 79.9809 7.19751H82.2865C84.0517 9.25091 84.0517 11.2683 82.2865 13.3217H82.3225Z" fill="#CB10AC" fill-opacity="0.4"/>
<path d="M322.102 129.789H326.353C329.307 131.914 325.992 134.22 324.443 135.913H322.138C320.373 133.86 320.373 131.842 322.138 129.789H322.102Z" fill="#CB10AC" fill-opacity="0.4"/>
<path d="M228.258 375.332C229.771 376.737 228.942 378.611 228.618 380.448C226.961 381.349 224.692 381.276 223.503 383.366C223.106 382.357 222.746 381.529 222.206 380.232C224.223 378.611 226.241 376.954 228.258 375.296V375.332Z" fill="#CB10AC" fill-opacity="0.4"/>
<path d="M192.449 25.7502H195.98C197.529 27.3353 196.484 29.0645 196.88 30.7937C195.692 31.4781 194.683 33.7117 193.134 33.3154C191.945 31.1539 192.81 28.8484 192.449 25.7502Z" fill="#CB10AC" fill-opacity="0.4"/>
<path d="M9.48096 144.235C8.47227 142.289 7.53564 140.452 6.599 138.615C8.2201 137.246 10.0213 138.471 11.4983 137.858C13.5157 139.624 12.6151 141.569 12.2909 143.73C11.4263 143.875 10.4896 144.055 9.48096 144.235Z" fill="#CB10AC" fill-opacity="0.4"/>
<path d="M30.7714 360.526C35.5987 364.309 35.3105 367.479 28.754 366.83C25.9081 364.669 29.0783 362.219 30.7714 360.526Z" fill="#CB10AC" fill-opacity="0.4"/>
<path d="M294.507 413.843H290.148C288.491 411.141 288.419 411.069 291.733 408.079C293.138 408.979 294.507 409.88 295.804 410.708C295.191 412.185 294.831 413.05 294.507 413.807V413.843Z" fill="#CB10AC" fill-opacity="0.4"/>
<path d="M3.50113 80.3273C3.14089 80.6515 2.16823 81.5881 1.12351 82.5968H-1.43423C-2.94726 81.0118 -1.93857 79.2826 -2.33484 77.5534C-1.50627 77.1932 -0.641692 76.8329 0.979413 76.1484C1.77195 77.4813 2.63655 78.8863 3.50113 80.3273Z" fill="#CB10AC" fill-opacity="0.4"/>
<path d="M32.1763 169.884C32.1763 169.884 31.0956 168.84 29.5465 167.363C30.8794 166.57 32.2123 165.742 34.1937 164.553C33.7974 164.553 34.4819 164.553 35.3825 164.553C35.7067 165.309 36.0669 166.174 36.6794 167.615C35.2384 168.335 33.7254 169.092 32.1763 169.848V169.884Z" fill="#CB10AC" fill-opacity="0.4"/>
<path d="M99.4342 113.29C98.1013 112.137 97.1286 111.237 96.228 110.444C96.0118 108.427 96.3721 107.058 99.8304 107.418C100.263 108.138 101.127 109.543 102.028 110.984C101.668 111.309 100.695 112.173 99.4702 113.29H99.4342Z" fill="#CB10AC" fill-opacity="0.4"/>
<path d="M244.253 409.592H237.949C237.733 408.547 237.552 407.646 237.372 406.818C239.174 404.836 241.227 405.773 243.497 406.061C243.677 406.89 243.857 407.79 244.217 409.592H244.253Z" fill="#CB10AC" fill-opacity="0.4"/>
<path d="M383.344 214.267V210.304C385.001 208.719 386.91 210.088 388.928 209.079C389.216 210.592 389.432 211.709 389.612 212.61C387.739 214.411 385.829 213.042 383.344 214.303V214.267Z" fill="#CB10AC" fill-opacity="0.4"/>
<path d="M107.972 101.185C109.197 102.879 112.187 103.671 110.782 106.913C109.99 107.057 109.053 107.274 108.044 107.454C107.108 106.445 106.207 105.472 105.198 104.356C105.414 102.915 107.108 102.338 108.008 101.149L107.972 101.185Z" fill="#CB10AC" fill-opacity="0.4"/>
<path d="M303.981 95.0613C301.928 94.8452 299.875 95.5297 297.749 94.3769C297.677 93.6204 297.605 92.7197 297.497 91.9272C299.37 90.3061 301.316 90.9185 303.657 91.4589C303.765 92.5756 303.837 93.8005 303.945 95.0613H303.981Z" fill="#CB10AC" fill-opacity="0.4"/>
<path d="M190.432 56.2271C192.629 56.4792 193.458 58.2444 195.007 59.9016C194.251 61.3065 193.386 62.8556 192.557 64.4046C188.631 64.3326 191.008 58.6767 190.432 56.2271Z" fill="#CB10AC" fill-opacity="0.4"/>
<path d="M153.002 28.0198C151.453 27.4434 150.589 27.1552 149.544 26.759C151.561 25.5341 151.741 23.5528 152.534 21.8596C154.299 22.0758 154.876 23.6969 155.632 24.2012C154.768 25.4621 153.831 26.795 153.002 28.0198Z" fill="#CB10AC" fill-opacity="0.4"/>
<path d="M126.381 399.721V395.902C127.39 395.686 128.326 395.506 129.191 395.326C130.344 396.551 131.893 397.235 132.253 398.856C130.74 400.189 128.939 399.181 126.381 399.721Z" fill="#CB10AC" fill-opacity="0.4"/>
<path d="M351.426 184.294C345.05 187.032 346.022 180.115 350.345 179.179C351.786 180.656 350.453 182.421 351.426 184.294Z" fill="#CB10AC" fill-opacity="0.4"/>
<path d="M373.509 201.334H376.103C376.319 202.379 376.571 203.495 376.895 204.936C375.49 205.189 374.554 205.405 373.689 205.549C371.924 204.072 371.96 202.739 373.509 201.334Z" fill="#CB10AC" fill-opacity="0.4"/>
<path d="M347.787 252.417H350.381C350.597 253.461 350.849 254.578 351.173 256.019C349.769 256.271 348.832 256.487 347.967 256.631C346.202 255.154 346.238 253.821 347.787 252.417Z" fill="#CB10AC" fill-opacity="0.4"/>
<path d="M230.924 368.704V372.162C228.87 373.351 226.997 373.243 224.583 372.054C226.601 370.974 228.402 370.037 230.924 368.668V368.704Z" fill="#CB10AC" fill-opacity="0.4"/>
<path d="M271.487 369.064H275.63C275.846 370.109 276.026 371.009 276.279 372.378C274.946 372.63 273.757 372.847 272.28 373.099C272.028 371.766 271.812 370.829 271.487 369.064Z" fill="#CB10AC" fill-opacity="0.4"/>
<path d="M316.951 405.845V402.567C317.419 402.063 317.635 401.81 317.851 401.594C318.608 403.9 322.03 402.711 322.751 405.053C321.238 406.277 319.436 405.341 316.915 405.845H316.951Z" fill="#CB10AC" fill-opacity="0.4"/>
<path d="M274.982 99.1685H277.576C277.792 100.213 278.044 101.33 278.368 102.771C276.963 103.023 276.026 103.239 275.162 103.383C273.397 101.906 273.433 100.573 274.982 99.1685Z" fill="#CB10AC" fill-opacity="0.4"/>
<path d="M31.9603 242.186C31.9603 240.168 34.0858 239.664 35.0584 238.151C36.2833 239.088 37.4721 239.988 38.769 240.961C36.1392 242.798 33.9777 241.897 31.9243 242.186H31.9603Z" fill="#CB10AC" fill-opacity="0.4"/>
<path d="M194.719 394.425V396.911C193.639 397.127 192.45 397.379 190.973 397.668C190.685 396.335 190.505 395.434 190.324 394.606C191.837 392.912 193.278 392.984 194.719 394.425Z" fill="#CB10AC" fill-opacity="0.4"/>
<path d="M166.692 382.897V386.86C165.611 387.076 164.639 387.22 163.198 387.509C162.946 386.248 162.729 385.095 162.441 383.69C163.846 383.438 164.819 383.258 166.656 382.933L166.692 382.897Z" fill="#CB10AC" fill-opacity="0.4"/>
<path d="M68.5613 367.155V363.192C69.642 362.976 70.6147 362.832 72.0557 362.544C72.3078 363.805 72.524 364.957 72.8122 366.362C71.4072 366.614 70.4345 366.795 68.5973 367.119L68.5613 367.155Z" fill="#CB10AC" fill-opacity="0.4"/>
<path d="M65.139 307.57H67.7327C67.9489 308.615 68.2011 309.732 68.5253 311.173C67.1203 311.425 66.1837 311.641 65.3191 311.785C63.5539 310.308 63.5899 308.975 65.139 307.57Z" fill="#CB10AC" fill-opacity="0.4"/>
<path d="M308.521 425.911H304.378C304.162 424.866 303.982 423.965 303.729 422.596C305.062 422.344 306.251 422.128 307.728 421.876C307.98 423.209 308.197 424.146 308.521 425.911Z" fill="#CB10AC" fill-opacity="0.4"/>
<path d="M221.701 57.5239C219.251 57.9562 218.063 58.1363 217.09 58.3164C215.721 56.8034 215.721 55.6866 216.766 54.4978C218.639 54.6419 218.963 56.6233 221.701 57.5239Z" fill="#CB10AC" fill-opacity="0.4"/>
<path d="M342.132 314.091C342.564 311.821 342.816 310.704 343.068 309.299C344.617 310.668 345.662 311.749 347.247 313.19C345.41 313.514 344.473 313.694 342.132 314.091Z" fill="#CB10AC" fill-opacity="0.4"/>
<path d="M164.71 21.3549C166.62 21.6431 167.809 21.8232 169.394 22.0393C167.737 23.6244 167.268 24.5611 165.431 25.2455C164.674 23.5163 164.638 23.9126 164.71 21.3188V21.3549Z" fill="#CB10AC" fill-opacity="0.4"/>
<path d="M104.405 341.073C105.774 340.245 107.107 339.452 108.584 338.587C108.728 339.38 108.908 340.497 109.052 341.433C107.431 342.622 106.279 342.73 104.405 341.073Z" fill="#CB10AC" fill-opacity="0.4"/>
<path d="M146.086 42.3575C145.798 40.8445 145.581 39.7277 145.437 38.7911C147.022 37.4582 148.175 37.4942 149.4 38.4669C149.076 40.124 147.455 40.7724 146.086 42.3575Z" fill="#CB10AC" fill-opacity="0.4"/>
<path d="M96.1922 352.529C95.1835 352.529 94.2109 352.529 93.2022 352.529C91.3649 351.448 91.473 350.151 92.6978 348.674C94.3549 349.575 95.868 350.548 96.1922 352.529Z" fill="#CB10AC" fill-opacity="0.4"/>
<path d="M-1.90277 239.88C-3.4158 235.593 1.01522 235.161 -0.533835 239.808C-1.00215 239.808 -1.43445 239.844 -1.90277 239.88Z" fill="#CB10AC" fill-opacity="0.4"/>
<path d="M383.812 301.914C385.613 302.995 385.685 304.112 384.532 305.3C381.686 304.58 384.244 302.923 383.812 301.914Z" fill="#CB10AC" fill-opacity="0.4"/>
<path d="M192.558 68.5112C192.162 69.8081 193.603 71.6814 191.297 72.4379C190.673 70.6367 191.093 69.3278 192.558 68.5112Z" fill="#CB10AC" fill-opacity="0.4"/>
<path d="M323.003 341.289C324.768 339.956 325.957 339.884 327.182 341.001C326.281 343.234 324.948 342.622 323.003 341.289Z" fill="#CB10AC" fill-opacity="0.4"/>
<path d="M96.1919 352.529C97.5608 352.889 99.5062 351.556 100.299 353.718C98.4014 354.318 97.0325 353.922 96.1919 352.529Z" fill="#CB10AC" fill-opacity="0.4"/>
<path d="M101.956 70.0965C100.155 69.0158 100.083 67.899 101.235 66.7102C104.081 67.4307 101.524 69.0878 101.956 70.0965Z" fill="#CB10AC" fill-opacity="0.4"/>
<path d="M192.558 64.4044C195.62 63.9361 195.368 69.0515 192.558 68.4751V64.4044Z" fill="#CB10AC" fill-opacity="0.4"/>
<path d="M10.5616 194.165C12.0026 192.688 13.4076 192.688 14.8486 194.165C13.4076 195.642 12.0026 195.642 10.5616 194.165Z" fill="#CB10AC" fill-opacity="0.4"/>
<path d="M78.7917 374.612C74.3247 376.053 73.8564 371.838 78.7197 373.315C78.7197 373.747 78.7557 374.18 78.7917 374.612Z" fill="#CB10AC" fill-opacity="0.4"/>
<path d="M40.5339 190.094C41.9749 188.617 43.3799 188.617 44.8209 190.094C43.3799 191.571 41.9749 191.571 40.5339 190.094Z" fill="#CB10AC" fill-opacity="0.4"/>
<path d="M367.853 386.896C363.386 388.337 362.917 384.122 367.781 385.599C367.781 386.032 367.817 386.464 367.853 386.896Z" fill="#CB10AC" fill-opacity="0.4"/>
<path d="M323.183 397.487C322.342 398.88 320.973 399.276 319.076 398.676C319.869 396.479 321.814 397.848 323.183 397.487Z" fill="#CB10AC" fill-opacity="0.4"/>
<path d="M326.389 405.665C327.938 407.034 327.938 408.403 326.389 409.772C324.84 408.403 324.84 407.034 326.389 405.665Z" fill="#CB10AC" fill-opacity="0.4"/>
<path d="M115.898 425.803C114.384 421.516 118.816 421.084 117.266 425.731C116.798 425.731 116.366 425.767 115.898 425.803Z" fill="#CB10AC" fill-opacity="0.4"/>
<path d="M100.479 429.153C99.0378 430.63 97.6329 430.63 96.1919 429.153C97.6329 427.676 99.0378 427.676 100.479 429.153Z" fill="#CB10AC" fill-opacity="0.4"/>
<path d="M297.497 429.153C296.056 430.63 294.651 430.63 293.21 429.153C294.651 427.676 296.056 427.676 297.497 429.153Z" fill="#CB10AC" fill-opacity="0.4"/>
<path d="M187.226 446.517C188.775 447.886 188.775 449.255 187.226 450.624C185.677 449.255 185.677 447.886 187.226 446.517Z" fill="#CB10AC" fill-opacity="0.4"/>
<path d="M218.675 41.6729C217.162 37.386 221.593 36.9537 220.044 41.6009C219.576 41.6009 219.144 41.6369 218.675 41.6729Z" fill="#CB10AC" fill-opacity="0.4"/>
<path d="M29.9784 141.785C29.0178 143.37 27.5888 143.863 25.6915 143.262C26.5201 141.137 28.4654 142.578 29.9784 141.785Z" fill="#CB10AC" fill-opacity="0.4"/>
<path d="M63.013 150.251C63.4453 151.044 64.1297 151.692 63.013 152.304C62.5807 151.512 61.8962 150.863 63.013 150.251Z" fill="#CB10AC" fill-opacity="0.4"/>
<path d="M390.945 188.761C390.513 188.509 390.044 188.293 389.576 188.041C390.188 186.96 390.873 187.645 391.701 188.041C391.449 188.257 391.233 188.509 390.945 188.761Z" fill="#CB10AC" fill-opacity="0.4"/>
<path d="M80.9174 95.782C80.6653 96.2143 80.4131 96.6466 80.1609 97.1149C79.0441 96.5025 79.7286 95.8901 80.1609 95.0615C80.4131 95.2777 80.6292 95.5298 80.9174 95.782Z" fill="#CB10AC" fill-opacity="0.4"/>
<path d="M10.2371 93.7644C9.98495 94.1967 9.73278 94.629 9.48061 95.0973C8.36385 94.4849 9.04832 93.8725 9.48061 93.0439C9.73278 93.2601 9.94893 93.5123 10.2371 93.7644Z" fill="#CB10AC" fill-opacity="0.4"/>
<path d="M115.176 90.2699C114.888 90.5581 114.636 90.7743 114.42 90.9904C113.988 90.1979 113.303 89.5494 114.42 88.937C114.672 89.3693 114.924 89.8376 115.176 90.2699Z" fill="#CB10AC" fill-opacity="0.4"/>
<path d="M356.83 89.1534C357.694 88.1807 358.199 87.6404 358.703 87.064C360.144 88.8652 358.487 88.6851 356.83 89.1534Z" fill="#CB10AC" fill-opacity="0.4"/>
<path d="M357.118 83.5337C356.866 83.966 356.614 84.3983 356.361 84.8666C355.245 84.2542 355.929 83.6418 356.361 82.8132C356.614 83.0294 356.83 83.2816 357.118 83.5337Z" fill="#CB10AC" fill-opacity="0.4"/>
<path d="M251.746 358.977C252.034 359.265 252.286 359.482 252.502 359.698C251.674 360.094 250.989 360.779 250.377 359.698C250.845 359.446 251.313 359.193 251.746 358.977Z" fill="#CB10AC" fill-opacity="0.4"/>
<path d="M222.53 361.751C221.701 362.147 221.017 362.832 220.404 361.751C221.233 361.355 221.917 360.67 222.53 361.751Z" fill="#CB10AC" fill-opacity="0.4"/>
<path d="M160.46 376.053C159.631 376.449 158.947 377.133 158.334 376.053C159.163 375.656 159.847 374.972 160.46 376.053Z" fill="#CB10AC" fill-opacity="0.4"/>
<path d="M302.36 378.863C301.495 379.835 300.991 380.376 300.487 380.952C299.046 379.151 300.703 379.331 302.36 378.863Z" fill="#CB10AC" fill-opacity="0.4"/>
<path d="M91.6164 386.536C91.3282 386.824 91.076 387.04 90.8599 387.256C90.4276 386.464 89.7431 385.815 90.8599 385.203C91.1121 385.635 91.3642 386.104 91.6164 386.536Z" fill="#CB10AC" fill-opacity="0.4"/>
<path d="M324.731 395.686C325.596 394.713 326.1 394.173 326.604 393.597C328.045 395.398 326.388 395.218 324.731 395.686Z" fill="#CB10AC" fill-opacity="0.4"/>
<path d="M325.308 395.434C325.38 396.839 324.659 397.524 323.182 397.488C323.11 396.083 323.831 395.398 325.308 395.434Z" fill="#CB10AC" fill-opacity="0.4"/>
<path d="M120.508 397.776C120.94 398.028 121.409 398.244 121.877 398.496C121.265 399.577 120.58 398.893 119.751 398.496C120.004 398.28 120.22 398.028 120.508 397.776Z" fill="#CB10AC" fill-opacity="0.4"/>
<path d="M171.448 409.015C171.7 408.583 171.952 408.151 172.204 407.682C173.321 408.295 172.636 408.907 172.204 409.736C171.952 409.52 171.736 409.267 171.448 409.015Z" fill="#CB10AC" fill-opacity="0.4"/>
<path d="M32.5723 241.969C31.7078 242.942 31.2034 243.483 30.6991 244.059C29.2581 242.258 30.9152 242.438 32.5723 241.969Z" fill="#CB10AC" fill-opacity="0.4"/>
</g>
<defs>
<filter id="filter0_f_45_122" x="-122.53" y="0.3" width="634.174" height="471.379" filterUnits="userSpaceOnUse" color-interpolation-filters="sRGB">
<feFlood flood-opacity="0" result="BackgroundImageFix"/>
<feBlend mode="normal" in="SourceGraphic" in2="BackgroundImageFix" result="shape"/>
<feGaussianBlur stdDeviation="2.35" result="effect1_foregroundBlur_45_122"/>
</filter>
</defs>
</svg>
