<?xml version="1.0" encoding="UTF-8" standalone="no" ?>
<svg xmlns="http://www.w3.org/2000/svg" xmlns:xlink="http://www.w3.org/1999/xlink" version="1.1" width="100" height="100" viewBox="0 0 50 50" xml:space="preserve">
<desc>Created with Fabric.js 5.3.0</desc>
<defs>
</defs>

<g transform="matrix(1.0165101243 0 0 1.0165101243 25.0791816972 25.0791816972)" id="5KhNnJpPpNGGfTQEWGgaJ"  >
<path style="stroke: rgb(193,214,235); stroke-width: 0; stroke-dasharray: none; stroke-linecap: butt; stroke-dashoffset: 0; stroke-linejoin: miter; stroke-miterlimit: 4; fill: #535bf2; fill-rule: nonzero; opacity: 1;"  transform=" translate(0, 0)" d="M 0 -24.45328 C 13.49821 -24.45328 24.45328 -13.49821 24.45328 0 C 24.45328 13.49821 13.49821 24.45328 0 24.45328 C -4.74056 24.45328 -13.79556 24.45328 -20.59039 24.45328 L -20.59039 24.45328 C -21.30893 24.45328 -21.964399999999998 24.04299 -22.27838 23.39668 C -22.59237 22.75037 -22.509749999999997 21.98151 -22.06562 21.41667 L -18.12696 16.407510000000002 C -18.12696 16.407510000000002 -24.45328 6.311970000000002 -24.45328 3.552713678800501e-15 C -24.45328 -13.498209999999997 -13.49821 -24.453279999999996 0 -24.453279999999996 z" stroke-linecap="round" />
</g>

<g transform="matrix(0.8319099156 0 0 0.8319099156 24.994825343 27.5042078551)" id="czJzT4Hwbs6DG6H3EvhdA"  >
<path style="stroke:white;stroke-width: 0; stroke-dasharray: none; stroke-linecap: butt; stroke-dashoffset: 0; stroke-linejoin: miter; stroke-miterlimit: 4; stroke: white;fill-rule: nonzero; opacity: 1;filter: url(#SVGID_337);"  transform=" translate(0, 0)" d="M -22.00081 -8.51364 C -22.644090000000002 -11.636790000000001 -22.37726 -14.87896 -21.23204 -17.85492 C -20.88222 -18.76396 -20.529210000000003 -19.40228 -19.709680000000002 -20.38364 C -17.568720000000003 -22.94738 -12.013910000000003 -12.34164 -9.002220000000003 -7.79485 L -9.002220000000003 -7.79485 C -8.925880000000003 -7.679600000000001 -8.796450000000004 -7.61074 -8.658210000000002 -7.6118500000000004 L -8.470730000000001 -7.6118500000000004 L -8.470730000000001 -7.6118500000000004 C -8.291590000000001 -7.6118500000000004 -8.13291 -7.72742 -8.077960000000001 -7.89792 L -7.308000000000001 -10.28675 L -7.308000000000001 -10.28675 C -6.91316 -11.511759999999999 -6.186910000000001 -12.60356 -5.209710000000001 -13.441189999999999 L -3.1654100000000014 -15.19352 L -3.1654100000000014 -15.19352 C -2.9860600000000015 -15.347259999999999 -2.7231500000000013 -15.3531 -2.5371400000000013 -15.20749 C -2.3511300000000013 -15.06188 -2.293690000000001 -14.80526 -2.3998700000000013 -14.59424 L -2.7753600000000014 -13.848009999999999 L -2.7753600000000014 -13.848009999999999 C -3.3186000000000013 -12.768389999999998 -3.4049600000000013 -11.515699999999999 -3.0150000000000015 -10.371749999999999 L -2.9032400000000016 -10.043909999999999 L -2.9032400000000016 -10.043909999999999 C -2.8738700000000015 -9.95774 -2.8073100000000015 -9.889349999999999 -2.7219800000000016 -9.857629999999999 C -2.6366500000000017 -9.825909999999999 -2.5415800000000015 -9.834229999999998 -2.463060000000002 -9.880289999999999 L -2.4471800000000017 -9.889599999999998 L -2.4471800000000017 -9.889599999999998 C -2.3498800000000015 -9.946669999999997 -2.2880900000000017 -10.049129999999998 -2.2830100000000018 -10.161819999999999 L -2.2550000000000017 -10.782639999999999 L -2.2550000000000017 -10.782639999999999 C -2.214550000000002 -11.679279999999999 -1.8994900000000017 -12.54183 -1.3524800000000017 -13.25344 L 0.9462599999999983 -16.24391 L 0.9462599999999983 -16.24391 C 1.1258099999999982 -16.47749 1.4376699999999984 -16.56503 1.7125499999999985 -16.45902 C 1.9874299999999985 -16.353009999999998 2.1597499999999985 -16.07873 2.1359599999999985 -15.785079999999999 L 1.9119199999999985 -13.01916 L 1.9119199999999985 -10.10906 L 1.9119199999999985 -10.10906 C 1.9119199999999985 -10.028789999999999 1.9507599999999985 -9.953479999999999 2.0161599999999984 -9.906939999999999 L 2.0186599999999983 -9.905159999999999 L 2.0186599999999983 -9.905159999999999 C 2.088929999999998 -9.855149999999998 2.1787199999999984 -9.841339999999999 2.260769999999998 -9.867919999999998 C 2.3428199999999983 -9.894499999999997 2.407449999999998 -9.958339999999998 2.435049999999998 -10.040059999999999 L 3.091629999999998 -11.984449999999999 L 3.091629999999998 -11.984449999999999 C 3.320199999999998 -12.661319999999998 3.729739999999998 -13.26269 4.275829999999998 -13.72332 L 5.928069999999998 -15.116999999999999 L 5.928069999999998 -15.116999999999999 C 6.082799999999998 -15.247509999999998 6.3033199999999985 -15.265419999999999 6.4770699999999986 -15.16157 C 6.650829999999998 -15.05773 6.739509999999998 -14.85503 6.697849999999999 -14.656939999999999 L 6.405949999999999 -13.26897 L 6.405949999999999 -13.26897 C 6.198899999999999 -12.28445 6.352969999999999 -11.258299999999998 6.840029999999999 -10.37799 L 8.21018 -7.90157 L 8.21018 -7.90157 C 8.30909 -7.7228 8.49729 -7.611840000000001 8.7016 -7.611840000000001 L 8.79971 -7.611840000000001 L 8.79971 -7.611840000000001 C 8.951699999999999 -7.611840000000001 9.09512 -7.682200000000001 9.188139999999999 -7.8024000000000004 C 12.484089999999998 -12.06127 17.4626 -22.56511 19.58157 -20.38364 C 20.403389999999998 -19.53758 20.840329999999998 -18.77374 21.20671 -17.85066 L 21.20671 -17.85066 C 22.38502 -14.881990000000002 22.654420000000002 -11.630100000000002 21.980700000000002 -8.508000000000001 L 19.581570000000003 2.609919999999999 C 19.581570000000003 2.609919999999999 15.955130000000002 20.44664 -0.08021999999999707 20.773609999999998 C -16.115569999999998 21.100589999999997 -19.70969 2.609919999999999 -19.70969 2.609919999999999 z" stroke-linecap="round" />
<filter id="SVGID_337" y="-29.625609259999997%" height="159.25121852%" x="-28.95125597%" width="157.90251194%" >
	<feGaussianBlur in="SourceAlpha" stdDeviation="2"></feGaussianBlur>
	<feOffset dx="0" dy="0" result="oBlur" ></feOffset>
	<feFlood flood-color="rgb(108,59,244)" flood-opacity="1"/>
	<feComposite in2="oBlur" operator="in" />
	<feMerge>
		<feMergeNode></feMergeNode>
		<feMergeNode in="SourceGraphic"></feMergeNode>
	</feMerge>
</filter>
<path style="stroke: rgb(166,191,166); stroke-width: 0; stroke-dasharray: none; stroke-linecap: butt; stroke-dashoffset: 0; stroke-linejoin: miter; stroke-miterlimit: 4; fill: rgb(68,214,44); fill-rule: nonzero; opacity: 1;"  transform=" translate(0, 0)" d="M -22.00081 -8.51364 C -22.644090000000002 -11.636790000000001 -22.37726 -14.87896 -21.23204 -17.85492 C -20.88222 -18.76396 -20.529210000000003 -19.40228 -19.709680000000002 -20.38364 C -17.568720000000003 -22.94738 -12.013910000000003 -12.34164 -9.002220000000003 -7.79485 L -9.002220000000003 -7.79485 C -8.925880000000003 -7.679600000000001 -8.796450000000004 -7.61074 -8.658210000000002 -7.6118500000000004 L -8.470730000000001 -7.6118500000000004 L -8.470730000000001 -7.6118500000000004 C -8.291590000000001 -7.6118500000000004 -8.13291 -7.72742 -8.077960000000001 -7.89792 L -7.308000000000001 -10.28675 L -7.308000000000001 -10.28675 C -6.91316 -11.511759999999999 -6.186910000000001 -12.60356 -5.209710000000001 -13.441189999999999 L -3.1654100000000014 -15.19352 L -3.1654100000000014 -15.19352 C -2.9860600000000015 -15.347259999999999 -2.7231500000000013 -15.3531 -2.5371400000000013 -15.20749 C -2.3511300000000013 -15.06188 -2.293690000000001 -14.80526 -2.3998700000000013 -14.59424 L -2.7753600000000014 -13.848009999999999 L -2.7753600000000014 -13.848009999999999 C -3.3186000000000013 -12.768389999999998 -3.4049600000000013 -11.515699999999999 -3.0150000000000015 -10.371749999999999 L -2.9032400000000016 -10.043909999999999 L -2.9032400000000016 -10.043909999999999 C -2.8738700000000015 -9.95774 -2.8073100000000015 -9.889349999999999 -2.7219800000000016 -9.857629999999999 C -2.6366500000000017 -9.825909999999999 -2.5415800000000015 -9.834229999999998 -2.463060000000002 -9.880289999999999 L -2.4471800000000017 -9.889599999999998 L -2.4471800000000017 -9.889599999999998 C -2.3498800000000015 -9.946669999999997 -2.2880900000000017 -10.049129999999998 -2.2830100000000018 -10.161819999999999 L -2.2550000000000017 -10.782639999999999 L -2.2550000000000017 -10.782639999999999 C -2.214550000000002 -11.679279999999999 -1.8994900000000017 -12.54183 -1.3524800000000017 -13.25344 L 0.9462599999999983 -16.24391 L 0.9462599999999983 -16.24391 C 1.1258099999999982 -16.47749 1.4376699999999984 -16.56503 1.7125499999999985 -16.45902 C 1.9874299999999985 -16.353009999999998 2.1597499999999985 -16.07873 2.1359599999999985 -15.785079999999999 L 1.9119199999999985 -13.01916 L 1.9119199999999985 -10.10906 L 1.9119199999999985 -10.10906 C 1.9119199999999985 -10.028789999999999 1.9507599999999985 -9.953479999999999 2.0161599999999984 -9.906939999999999 L 2.0186599999999983 -9.905159999999999 L 2.0186599999999983 -9.905159999999999 C 2.088929999999998 -9.855149999999998 2.1787199999999984 -9.841339999999999 2.260769999999998 -9.867919999999998 C 2.3428199999999983 -9.894499999999997 2.407449999999998 -9.958339999999998 2.435049999999998 -10.040059999999999 L 3.091629999999998 -11.984449999999999 L 3.091629999999998 -11.984449999999999 C 3.320199999999998 -12.661319999999998 3.729739999999998 -13.26269 4.275829999999998 -13.72332 L 5.928069999999998 -15.116999999999999 L 5.928069999999998 -15.116999999999999 C 6.082799999999998 -15.247509999999998 6.3033199999999985 -15.265419999999999 6.4770699999999986 -15.16157 C 6.650829999999998 -15.05773 6.739509999999998 -14.85503 6.697849999999999 -14.656939999999999 L 6.405949999999999 -13.26897 L 6.405949999999999 -13.26897 C 6.198899999999999 -12.28445 6.352969999999999 -11.258299999999998 6.840029999999999 -10.37799 L 8.21018 -7.90157 L 8.21018 -7.90157 C 8.30909 -7.7228 8.49729 -7.611840000000001 8.7016 -7.611840000000001 L 8.79971 -7.611840000000001 L 8.79971 -7.611840000000001 C 8.951699999999999 -7.611840000000001 9.09512 -7.682200000000001 9.188139999999999 -7.8024000000000004 C 12.484089999999998 -12.06127 17.4626 -22.56511 19.58157 -20.38364 C 20.403389999999998 -19.53758 20.840329999999998 -18.77374 21.20671 -17.85066 L 21.20671 -17.85066 C 22.38502 -14.881990000000002 22.654420000000002 -11.630100000000002 21.980700000000002 -8.508000000000001 L 19.581570000000003 2.609919999999999 C 19.581570000000003 2.609919999999999 15.955130000000002 20.44664 -0.08021999999999707 20.773609999999998 C -16.115569999999998 21.100589999999997 -19.70969 2.609919999999999 -19.70969 2.609919999999999 z" stroke-linecap="round" />
</g>
<g transform="matrix(0.8319099156 0 0 0.8319099156 24.8425577545 31.552883675)" id="LQ_81o81XQWJDY5Qn_xoc"  >
<!-- <path style="stroke: rgb(0,157,67); stroke-width: 0; stroke-dasharray: none; stroke-linecap: butt; stroke-dashoffset: 0; stroke-linejoin: miter; stroke-miterlimit: 4; fill: rgb(0,0,0); fill-rule: nonzero; opacity: 0.05;"  transform=" translate(0, 0)" d="M -6.1603 -5.46401 C -6.1603 -5.46401 -2.93196 -2.5373200000000002 -2.4850700000000003 0.3978099999999998 C -2.0745000000000005 3.0943699999999996 -2.1391700000000005 3.50989 -2.0720500000000004 5.0495399999999995 L -2.0720500000000004 5.0495399999999995 C -2.0619400000000003 5.281509999999999 -1.8707800000000003 5.464289999999999 -1.6385800000000004 5.463989999999999 L 1.9347899999999998 5.463989999999999 L 1.9347899999999998 5.463989999999999 C 2.20523 5.463879999999999 2.42724 5.250049999999999 2.4375 4.979799999999999 C 2.49501 3.464369999999999 2.43787 3.053769999999999 2.7898 0.39779999999999927 C 3.17873 -2.537340000000001 6.16029 -5.4640200000000005 6.16029 -5.4640200000000005 z" stroke-linecap="round" /> -->
</g>
<g transform="matrix(1.1061036138 0 0 1.0666237522 24.9833411498 39.882831079)" id="3znMYGLmKmzcnLE2ZhgWr"  >
<path style="stroke:white;stroke-width: 0; stroke-dasharray: none; stroke-linecap: butt; stroke-dashoffset: 0; stroke-linejoin: miter; stroke-miterlimit: 4; stroke: white;fill-rule: nonzero; opacity: 1;filter: url(#SVGID_0);"  transform=" translate(0, 0)" d="M -7.53108 -2.93119 C -7.56447 -2.99486 -7.551740000000001 -3.07393 -7.5002 -3.12289 C -7.448670000000001 -3.17185 -7.371600000000001 -3.1781 -7.313350000000001 -3.13805 C -6.842320000000001 -2.8141399999999996 -5.979120000000001 -2.23331 -5.881120000000001 -2.16418 C -5.722310000000001 -2.05216 -5.235690000000001 -1.27697 -4.937640000000001 -0.82542 L -4.937640000000001 -0.82542 C -4.909360000000001 -0.78257 -4.859450000000001 -0.76093 -4.810170000000001 -0.77014 C -4.760890000000001 -0.7793500000000001 -4.721420000000001 -0.81771 -4.7093500000000015 -0.8681000000000001 L -4.605040000000002 -1.3032700000000002 L -4.605040000000002 -1.3032700000000002 C -4.596520000000002 -1.33874 -4.573060000000002 -1.3683400000000001 -4.541160000000001 -1.3838800000000002 C -4.509260000000001 -1.3994200000000003 -4.4723000000000015 -1.3992300000000002 -4.440550000000002 -1.3833800000000003 C -3.8016400000000017 -1.0644000000000002 -2.8428600000000017 -0.5114600000000002 -2.463090000000002 -0.5114600000000002 C -0.989590000000002 -0.5114600000000002 0.01810999999999785 -1.9146800000000002 0.01810999999999785 -1.9146800000000002 C 0.01810999999999785 -1.9146800000000002 1.122449999999998 -0.5114600000000002 2.475009999999998 -0.5114600000000002 C 3.1048599999999977 -0.5114600000000002 3.6393499999999976 -0.9556000000000002 4.164699999999998 -1.2729300000000001 L 4.164699999999998 -1.2729300000000001 C 4.199389999999998 -1.2938900000000002 4.2412899999999985 -1.2977100000000001 4.278979999999998 -1.2833700000000001 C 4.3166699999999985 -1.26903 4.346229999999998 -1.2380000000000002 4.359619999999998 -1.1987500000000002 L 4.494339999999998 -0.8098700000000002 L 4.494339999999998 -0.8098700000000002 C 4.510019999999997 -0.7646200000000002 4.5486299999999975 -0.7321300000000002 4.594569999999997 -0.7255600000000002 C 4.640499999999998 -0.7189900000000002 4.686159999999997 -0.7394100000000002 4.713069999999997 -0.7785700000000002 C 5.028639999999998 -1.2377200000000002 5.649969999999997 -2.1520900000000003 5.6770799999999975 -2.1641900000000005 C 5.910119999999997 -2.2681900000000006 6.774339999999997 -2.7903000000000007 7.305779999999998 -3.1149000000000004 L 7.305779999999998 -3.1149000000000004 C 7.370829999999998 -3.1546300000000005 7.453719999999998 -3.1424100000000004 7.5055099999999975 -3.0854500000000002 C 7.557299999999998 -3.02849 7.564199999999998 -2.9419600000000004 7.522139999999998 -2.8769500000000003 C 5.775349999999998 -0.17742000000000013 3.6575499999999974 3.1396399999999995 0.018109999999997406 3.1641299999999997 C -4.387340000000003 3.1937699999999998 -6.0226200000000025 -0.05489000000000033 -7.5310900000000025 -2.9311900000000004 z" stroke-linecap="round" />
<filter id="SVGID_0" y="-23.16022317%" height="146.32044634%" x="-20%" width="140%" >
	<feGaussianBlur in="SourceAlpha" stdDeviation="0"></feGaussianBlur>
	<feOffset dx="0" dy="0.2" result="oBlur" ></feOffset>
	<feFlood flood-color="rgb(18,160,79)" flood-opacity="1"/>
	<feComposite in2="oBlur" operator="in" />
	<feMerge>
		<feMergeNode></feMergeNode>
		<feMergeNode in="SourceGraphic"></feMergeNode>
	</feMerge>
</filter>


<path style="stroke: rgb(53,237,61); stroke-width: 0; stroke-dasharray: none; stroke-linecap: butt; stroke-dashoffset: 0; stroke-linejoin: miter; stroke-miterlimit: 4; fill: #1A1A1B; fill-rule: nonzero; opacity: 1;"  transform=" translate(0, 0)" d="M -7.53108 -2.93119 C -7.56447 -2.99486 -7.551740000000001 -3.07393 -7.5002 -3.12289 C -7.448670000000001 -3.17185 -7.371600000000001 -3.1781 -7.313350000000001 -3.13805 C -6.842320000000001 -2.8141399999999996 -5.979120000000001 -2.23331 -5.881120000000001 -2.16418 C -5.722310000000001 -2.05216 -5.235690000000001 -1.27697 -4.937640000000001 -0.82542 L -4.937640000000001 -0.82542 C -4.909360000000001 -0.78257 -4.859450000000001 -0.76093 -4.810170000000001 -0.77014 C -4.760890000000001 -0.7793500000000001 -4.721420000000001 -0.81771 -4.7093500000000015 -0.8681000000000001 L -4.605040000000002 -1.3032700000000002 L -4.605040000000002 -1.3032700000000002 C -4.596520000000002 -1.33874 -4.573060000000002 -1.3683400000000001 -4.541160000000001 -1.3838800000000002 C -4.509260000000001 -1.3994200000000003 -4.4723000000000015 -1.3992300000000002 -4.440550000000002 -1.3833800000000003 C -3.8016400000000017 -1.0644000000000002 -2.8428600000000017 -0.5114600000000002 -2.463090000000002 -0.5114600000000002 C -0.989590000000002 -0.5114600000000002 0.01810999999999785 -1.9146800000000002 0.01810999999999785 -1.9146800000000002 C 0.01810999999999785 -1.9146800000000002 1.122449999999998 -0.5114600000000002 2.475009999999998 -0.5114600000000002 C 3.1048599999999977 -0.5114600000000002 3.6393499999999976 -0.9556000000000002 4.164699999999998 -1.2729300000000001 L 4.164699999999998 -1.2729300000000001 C 4.199389999999998 -1.2938900000000002 4.2412899999999985 -1.2977100000000001 4.278979999999998 -1.2833700000000001 C 4.3166699999999985 -1.26903 4.346229999999998 -1.2380000000000002 4.359619999999998 -1.1987500000000002 L 4.494339999999998 -0.8098700000000002 L 4.494339999999998 -0.8098700000000002 C 4.510019999999997 -0.7646200000000002 4.5486299999999975 -0.7321300000000002 4.594569999999997 -0.7255600000000002 C 4.640499999999998 -0.7189900000000002 4.686159999999997 -0.7394100000000002 4.713069999999997 -0.7785700000000002 C 5.028639999999998 -1.2377200000000002 5.649969999999997 -2.1520900000000003 5.6770799999999975 -2.1641900000000005 C 5.910119999999997 -2.2681900000000006 6.774339999999997 -2.7903000000000007 7.305779999999998 -3.1149000000000004 L 7.305779999999998 -3.1149000000000004 C 7.370829999999998 -3.1546300000000005 7.453719999999998 -3.1424100000000004 7.5055099999999975 -3.0854500000000002 C 7.557299999999998 -3.02849 7.564199999999998 -2.9419600000000004 7.522139999999998 -2.8769500000000003 C 5.775349999999998 -0.17742000000000013 3.6575499999999974 3.1396399999999995 0.018109999999997406 3.1641299999999997 C -4.387340000000003 3.1937699999999998 -6.0226200000000025 -0.05489000000000033 -7.5310900000000025 -2.9311900000000004 z" stroke-linecap="round" />
</g>
<g transform="matrix(1.4421615357 0 0 1.4491816201 24.9833411498 36.5962376417)" id="txcp_yqI5qYdHfZjFWcJc"  >
<path style="stroke: rgb(0,0,0); stroke-width: 0; stroke-dasharray: none; stroke-linecap: butt; stroke-dashoffset: 0; stroke-linejoin: miter; stroke-miterlimit: 4; fill: rgb(11,20,22); fill-rule: nonzero; opacity: 1;"  transform=" translate(0, 0)" d="M -1.21962 -0.34776 C -1.3072199999999998 -0.45746000000000003 -1.32399 -0.60738 -1.2627899999999999 -0.73357 C -1.20159 -0.8597600000000001 -1.0732099999999998 -0.93996 -0.9323999999999999 -0.93996 L 0.89398 -0.93996 L 0.89398 -0.93996 C 1.04953 -0.93996 1.19136 -0.85136 1.25898 -0.7119500000000001 C 1.32659 -0.57254 1.30806 -0.4069100000000001 1.21128 -0.2857200000000001 L 0.3644099999999999 0.7748399999999999 L 0.3644099999999999 0.7748399999999999 C 0.2810999999999999 0.8791699999999999 0.1545099999999999 0.9399699999999999 0.020609999999999906 0.9399699999999999 C -0.1133000000000001 0.9399699999999999 -0.2398900000000001 0.8791699999999999 -0.3231900000000001 0.7748399999999999 z" stroke-linecap="round" />
</g>
<g transform="matrix(-0.9584521206 0.8042368209 0.5285425712 0.629892508 31.1848269377 31.2169630972)" id="rN_n2WaEOms_eVhz6R1aP"  >
<path style="stroke:white;stroke-width: 0; stroke-dasharray: none; stroke-linecap: butt; stroke-dashoffset: 0; stroke-linejoin: miter; stroke-miterlimit: 4; stroke: white;fill-rule: nonzero; opacity: 1;filter: url(#SVGID_463);"  transform=" translate(0, 0)" d="M -0.17627 -2.97349 C 1.37415 -2.97349 3.0252299999999996 -1.07622 3.013 0.13371000000000022 C 3.00076 1.3436500000000002 1.48129 2.9734800000000003 -0.06912999999999991 2.9734800000000003 C -1.6195499999999998 2.9734800000000003 -2.86715 1.4879000000000004 -3.0038899999999997 0.37915000000000054 C -3.14063 -0.7295999999999994 -1.7266899999999998 -2.9734999999999996 -0.1762699999999997 -2.9734999999999996 z" stroke-linecap="round" />
<filter id="SVGID_463" y="-20.41451916%" height="140.82903832%" x="-24.67574633%" width="149.35149266%" >
	<feGaussianBlur in="SourceAlpha" stdDeviation="0"></feGaussianBlur>
	<feOffset dx="-0.2817664106" dy="-0.0246513667" result="oBlur" ></feOffset>
	<feFlood flood-color="rgb(114,114,114)" flood-opacity="1"/>
	<feComposite in2="oBlur" operator="in" />
	<feMerge>
		<feMergeNode></feMergeNode>
		<feMergeNode in="SourceGraphic"></feMergeNode>
	</feMerge>
</filter>
<path style="stroke: rgb(138,37,39); stroke-width: 0; stroke-dasharray: none; stroke-linecap: butt; stroke-dashoffset: 0; stroke-linejoin: miter; stroke-miterlimit: 4; fill: rgb(203,203,203); fill-rule: nonzero; opacity: 1;"  transform=" translate(0, 0)" d="M -0.17627 -2.97349 C 1.37415 -2.97349 3.0252299999999996 -1.07622 3.013 0.13371000000000022 C 3.00076 1.3436500000000002 1.48129 2.9734800000000003 -0.06912999999999991 2.9734800000000003 C -1.6195499999999998 2.9734800000000003 -2.86715 1.4879000000000004 -3.0038899999999997 0.37915000000000054 C -3.14063 -0.7295999999999994 -1.7266899999999998 -2.9734999999999996 -0.1762699999999997 -2.9734999999999996 z" stroke-linecap="round" />
</g>
<g transform="matrix(0.9584521206 0.8042368209 -0.5285425712 0.629892508 18.7398654031 31.2169631464)" id="YiMpJUipvwnXPJhPpEh_A"  >
<path style="stroke:white;stroke-width: 0; stroke-dasharray: none; stroke-linecap: butt; stroke-dashoffset: 0; stroke-linejoin: miter; stroke-miterlimit: 4; stroke: white;fill-rule: nonzero; opacity: 1;filter: url(#SVGID_482);"  transform=" translate(0, 0)" d="M -0.17627 -2.97349 C 1.37415 -2.97349 3.0252299999999996 -1.07622 3.013 0.13371000000000022 C 3.00076 1.3436500000000002 1.48129 2.9734800000000003 -0.06912999999999991 2.9734800000000003 C -1.6195499999999998 2.9734800000000003 -2.86715 1.4879000000000004 -3.0038899999999997 0.37915000000000054 C -3.14063 -0.7295999999999994 -1.7266899999999998 -2.9734999999999996 -0.1762699999999997 -2.9734999999999996 z" stroke-linecap="round" />
<filter id="SVGID_482" y="-20.41451916%" height="140.82903832%" x="-24.67574633%" width="149.35149266%" >
	<feGaussianBlur in="SourceAlpha" stdDeviation="0"></feGaussianBlur>
	<feOffset dx="-0.2817664106" dy="-0.0246513667" result="oBlur" ></feOffset>
	<feFlood flood-color="rgb(114,114,114)" flood-opacity="1"/>
	<feComposite in2="oBlur" operator="in" />
	<feMerge>
		<feMergeNode></feMergeNode>
		<feMergeNode in="SourceGraphic"></feMergeNode>
	</feMerge>
</filter>
<path style="stroke: rgb(138,37,39); stroke-width: 0; stroke-dasharray: none; stroke-linecap: butt; stroke-dashoffset: 0; stroke-linejoin: miter; stroke-miterlimit: 4; fill: rgb(203,203,203); fill-rule: nonzero; opacity: 1;"  transform=" translate(0, 0)" d="M -0.17627 -2.97349 C 1.37415 -2.97349 3.0252299999999996 -1.07622 3.013 0.13371000000000022 C 3.00076 1.3436500000000002 1.48129 2.9734800000000003 -0.06912999999999991 2.9734800000000003 C -1.6195499999999998 2.9734800000000003 -2.86715 1.4879000000000004 -3.0038899999999997 0.37915000000000054 C -3.14063 -0.7295999999999994 -1.7266899999999998 -2.9734999999999996 -0.1762699999999997 -2.9734999999999996 z" stroke-linecap="round" />
</g>
<g transform="matrix(0.9251853503 -0.8627492966 0.6495612592 0.6965691696 33.3339527602 29.4322134083)" id="2iv-sMcUwkF3S76qJMYiG"  >
<path style="stroke: rgb(0,255,0); stroke-width: 0; stroke-dasharray: none; stroke-linecap: butt; stroke-dashoffset: 0; stroke-linejoin: miter; stroke-miterlimit: 4; fill: rgb(255,255,255); fill-rule: nonzero; opacity: 1;"  transform=" translate(0, 0)" d="M 0 -0.61765 C 0.34094 -0.61765 0.61765 -0.34094 0.61765 0 C 0.61765 0.34094 0.34094 0.61765 0 0.61765 C -0.34094 0.61765 -0.61765 0.34094 -0.61765 0 C -0.61765 -0.34094 -0.34094 -0.61765 0 -0.61765 z" stroke-linecap="round" />
</g>
<g transform="matrix(0.9968582965 0.7788310587 -0.5863794791 0.7505315076 19.7177462579 29.8453576942)" id="R0Wf729BudX5M8bmvEKj7"  >
<path style="stroke: rgb(0,255,0); stroke-width: 0; stroke-dasharray: none; stroke-linecap: butt; stroke-dashoffset: 0; stroke-linejoin: miter; stroke-miterlimit: 4; fill: rgb(255,255,255); fill-rule: nonzero; opacity: 1;"  transform=" translate(0, 0)" d="M 0 -0.61765 C 0.34094 -0.61765 0.61765 -0.34094 0.61765 0 C 0.61765 0.34094 0.34094 0.61765 0 0.61765 C -0.34094 0.61765 -0.61765 0.34094 -0.61765 0 C -0.61765 -0.34094 -0.34094 -0.61765 0 -0.61765 z" stroke-linecap="round" />
</g>
<g transform="matrix(0.3389471748 0 0 0.5972611913 25.0791816972 38.3981394849)" id="n_bGjKHo0I-XRYlYdFEd7"  >
<path style="stroke:white;stroke-width: 0; stroke-dasharray: none; stroke-linecap: butt; stroke-dashoffset: 0; stroke-linejoin: miter; stroke-miterlimit: 4; stroke: white;fill-rule: nonzero; opacity: 0.1;filter: url(#SVGID_189);"  transform=" translate(0, 0)" d="M -0.38436 10.69571 C -35.82923 10.99387 -45.78722 -9.300849999999999 -45.78722 -9.300849999999999 C -45.78722 -9.300849999999999 -41.77158 -2.1377499999999987 -29.78401 3.099660000000002 C -22.09396 6.459470000000001 -7.68507 8.789390000000001 -0.2827599999999997 8.709980000000002 C 6.7835600000000005 8.634170000000001 21.11623 6.433700000000002 28.64557 3.099660000000002 C 41.29872 -2.503219999999998 45.78722 -10.698969999999997 45.78722 -10.698969999999997 C 45.78722 -10.698969999999997 35.060509999999994 10.397540000000001 -0.3843700000000041 10.695700000000004 z" stroke-linecap="round" />
<filter id="SVGID_189" y="-24.67334975%" height="149.3466995%" x="-21.09200769%" width="142.18401538%" >
	<feGaussianBlur in="SourceAlpha" stdDeviation="0.5"></feGaussianBlur>
	<feOffset dx="0" dy="0" result="oBlur" ></feOffset>
	<feFlood flood-color="rgb(0,0,0)" flood-opacity="1"/>
	<feComposite in2="oBlur" operator="in" />
	<feMerge>
		<feMergeNode></feMergeNode>
		<feMergeNode in="SourceGraphic"></feMergeNode>
	</feMerge>
</filter>
<path style="stroke: rgb(53,237,61); stroke-width: 0; stroke-dasharray: none; stroke-linecap: butt; stroke-dashoffset: 0; stroke-linejoin: miter; stroke-miterlimit: 4; fill: rgb(18,160,79); fill-rule: nonzero; opacity: 0.1;"  transform=" translate(0, 0)" d="M -0.38436 10.69571 C -35.82923 10.99387 -45.78722 -9.300849999999999 -45.78722 -9.300849999999999 C -45.78722 -9.300849999999999 -41.77158 -2.1377499999999987 -29.78401 3.099660000000002 C -22.09396 6.459470000000001 -7.68507 8.789390000000001 -0.2827599999999997 8.709980000000002 C 6.7835600000000005 8.634170000000001 21.11623 6.433700000000002 28.64557 3.099660000000002 C 41.29872 -2.503219999999998 45.78722 -10.698969999999997 45.78722 -10.698969999999997 C 45.78722 -10.698969999999997 35.060509999999994 10.397540000000001 -0.3843700000000041 10.695700000000004 z" stroke-linecap="round" />
</g>
<g transform="matrix(-0.8035632727 -0.21531413 -0.21531413 0.8035632727 39.4458539605 18.2473336932)" id="zOmn7Gy5ucfRnoI1yIDsy"  >
<path style="stroke: rgb(0,157,67); stroke-width: 0; stroke-dasharray: none; stroke-linecap: butt; stroke-dashoffset: 0; stroke-linejoin: miter; stroke-miterlimit: 4; fill: rgb(0,0,0); fill-rule: nonzero; opacity: 0.1;"  transform=" translate(0, 0)" d="M 0.85434 -8.99954 C 1.85826 -8.62449 3.58892 -3.33322 4.40295 -0.3607099999999992 L 4.40295 -0.3607099999999992 C 5.37249 3.1796800000000007 3.3405499999999995 6.847040000000001 -0.17525000000000013 7.902280000000001 L -3.87175 9.011750000000001 L -3.87175 9.011750000000001 C -4.05718 9.06741 -4.25807 9.030220000000002 -4.41129 8.91187 C -4.56451 8.793520000000001 -4.65125 8.60854 -4.64425 8.41507 L -4.389460000000001 1.3719599999999996 L -4.389460000000001 1.3719599999999996 C -4.311850000000001 -0.7735100000000004 -3.7658300000000007 -2.87603 -2.7897100000000004 -4.78817 C -1.9541100000000005 -6.42502 -0.2318800000000003 -9.40533 0.8543399999999997 -8.99954 z" stroke-linecap="round" />
</g>
<g transform="matrix(0.8035632727 -0.21531413 0.21531413 0.8035632727 10.689041591 18.247334157)" id="EpuDu92lGN83z3hbrO7o9"  >
<path style="stroke: rgb(0,157,67); stroke-width: 0; stroke-dasharray: none; stroke-linecap: butt; stroke-dashoffset: 0; stroke-linejoin: miter; stroke-miterlimit: 4; fill: rgb(0,0,0); fill-rule: nonzero; opacity: 0.1;"  transform=" translate(0, 0)" d="M 0.85434 -8.99954 C 1.85826 -8.62449 3.58892 -3.33322 4.40295 -0.3607099999999992 L 4.40295 -0.3607099999999992 C 5.37249 3.1796800000000007 3.3405499999999995 6.847040000000001 -0.17525000000000013 7.902280000000001 L -3.87175 9.011750000000001 L -3.87175 9.011750000000001 C -4.05718 9.06741 -4.25807 9.030220000000002 -4.41129 8.91187 C -4.56451 8.793520000000001 -4.65125 8.60854 -4.64425 8.41507 L -4.389460000000001 1.3719599999999996 L -4.389460000000001 1.3719599999999996 C -4.311850000000001 -0.7735100000000004 -3.7658300000000007 -2.87603 -2.7897100000000004 -4.78817 C -1.9541100000000005 -6.42502 -0.2318800000000003 -9.40533 0.8543399999999997 -8.99954 z" stroke-linecap="round" />
</g>
<!-- голова -->
<!-- <g transform="matrix(0.8319099156 0 0 0.8319099156 24.9464369456 28.5801692454)" id="RTYMOi8rQ4bdl0gngSiFJ"  >
<path style="stroke:white;stroke-width: 0; stroke-dasharray: none; stroke-linecap: butt; stroke-dashoffset: 0; stroke-linejoin: miter; stroke-miterlimit: 4; stroke: white;fill-rule: nonzero; opacity: 1;filter: url(#SVGID_279);"  transform=" translate(0, 0)" d="M -21.60655 -4.55465 C -22.03117 -4.55465 -22.42906 -4.3473999999999995 -22.672439999999998 -3.9994499999999995 C -22.915819999999997 -3.6515099999999996 -22.97405 -3.2066699999999995 -22.828429999999997 -2.8077999999999994 L -20.795939999999998 2.7594900000000004 L -20.795939999999998 2.7594900000000004 C -20.45366 3.6970500000000004 -19.77537 4.474080000000001 -18.892629999999997 4.93986 L -11.962009999999996 8.59685 L -11.962009999999996 8.59685 C -11.620289999999995 8.77716 -11.204209999999996 8.7379 -10.902239999999995 8.49686 C -10.600269999999995 8.25581 -10.469789999999996 7.858779999999999 -10.569899999999995 7.48559 L -12.161259999999995 1.55335 L -12.161259999999995 1.55335 C -12.362909999999996 0.80165 -12.159209999999995 -0.0008200000000000429 -11.623459999999994 -0.56534 C -11.087709999999994 -1.1298599999999999 -10.296979999999994 -1.37522 -9.535769999999994 -1.21313 L -1.0320299999999936 0.5975900000000001 L -1.0320299999999936 0.5975900000000001 C -0.6236799999999936 0.68454 -0.20732999999999357 0.72838 0.2101700000000064 0.72838 L 0.2101700000000064 0.72838 L 0.2101700000000064 0.72838 C 0.6346600000000064 0.72838 1.0579700000000063 0.6837 1.4731000000000065 0.59506 L 9.784430000000006 -1.17942 L 9.784430000000006 -1.17942 C 10.565000000000005 -1.3460699999999999 11.375650000000006 -1.08944 11.918100000000006 -0.5039399999999999 C 12.460550000000007 0.08155000000000001 12.654660000000007 0.9094100000000002 12.429010000000005 1.6750099999999999 L 10.722290000000005 7.465590000000001 L 10.722290000000005 7.465590000000001 C 10.621800000000004 7.806540000000001 10.742870000000005 8.17408 11.026330000000005 8.38855 C 11.309780000000005 8.60302 11.696400000000006 8.61961 11.997190000000005 8.43021 L 18.761830000000003 4.170660000000001 L 18.761830000000003 4.170660000000001 C 19.418540000000004 3.7571400000000006 19.947720000000004 3.1696100000000005 20.290530000000004 2.473370000000001 L 22.772630000000003 -2.5676099999999993 L 22.772630000000003 -2.5676099999999993 C 22.971220000000002 -2.970929999999999 22.949030000000004 -3.447939999999999 22.713850000000004 -3.831079999999999 C 22.478670000000005 -4.214219999999999 22.063390000000005 -4.449939999999999 21.613860000000003 -4.455439999999999 L 14.768070000000002 -4.539179999999999 L 14.768070000000002 -4.539179999999999 C 14.067700000000002 -4.547749999999999 13.504440000000002 -5.117939999999999 13.504440000000002 -5.818369999999999 L 13.504440000000002 -7.2628499999999985 L 13.504440000000002 -7.2628499999999985 C 13.504440000000002 -7.745069999999998 13.253890000000002 -8.192659999999998 12.842810000000002 -8.444769999999998 C 12.431740000000001 -8.696879999999998 11.919200000000002 -8.717289999999998 11.489380000000002 -8.498679999999998 L 1.292460000000002 -3.3122999999999987 L 1.292460000000002 -3.3122999999999987 C 1.000740000000002 -3.1639199999999987 0.678090000000002 -3.0865799999999988 0.3508000000000019 -3.0865799999999988 L 0.1974900000000019 -3.0865799999999988 L 0.1974900000000019 -3.0865799999999988 C -0.20699999999999813 -3.0865799999999988 -0.6057999999999981 -3.1819399999999987 -0.9665299999999981 -3.364929999999999 L -11.225549999999998 -8.56899 L -11.225549999999998 -8.56899 C -11.627209999999998 -8.772739999999999 -12.105869999999998 -8.75329 -12.489679999999998 -8.517619999999999 C -12.873489999999999 -8.281949999999998 -13.107369999999998 -7.863869999999999 -13.107369999999998 -7.4134899999999995 L -13.107369999999998 -5.76941 L -13.107369999999998 -5.76941 C -13.107369999999998 -5.09852 -13.651239999999998 -4.55465 -14.322129999999998 -4.55465 z" stroke-linecap="round" />
<filter id="SVGID_279" y="-21.72232535%" height="143.4446507%" x="-20.65481269%" width="141.30962538%" >
	<feGaussianBlur in="SourceAlpha" stdDeviation="0.05"></feGaussianBlur>
	<feOffset dx="0.2" dy="0.2" result="oBlur" ></feOffset>
	<feFlood flood-color="rgb(65,39,137)" flood-opacity="1"/>
	<feComposite in2="oBlur" operator="in" />
	<feMerge>
		<feMergeNode></feMergeNode>
		<feMergeNode in="SourceGraphic"></feMergeNode>
	</feMerge>
</filter>
<path style="stroke: rgb(0,0,0); stroke-width: 0; stroke-dasharray: none; stroke-linecap: butt; stroke-dashoffset: 0; stroke-linejoin: miter; stroke-miterlimit: 4; fill: #1A1A1B; fill-rule: nonzero; opacity: 1;"  transform=" translate(0, 0)" d="M -21.60655 -4.55465 C -22.03117 -4.55465 -22.42906 -4.3473999999999995 -22.672439999999998 -3.9994499999999995 C -22.915819999999997 -3.6515099999999996 -22.97405 -3.2066699999999995 -22.828429999999997 -2.8077999999999994 L -20.795939999999998 2.7594900000000004 L -20.795939999999998 2.7594900000000004 C -20.45366 3.6970500000000004 -19.77537 4.474080000000001 -18.892629999999997 4.93986 L -11.962009999999996 8.59685 L -11.962009999999996 8.59685 C -11.620289999999995 8.77716 -11.204209999999996 8.7379 -10.902239999999995 8.49686 C -10.600269999999995 8.25581 -10.469789999999996 7.858779999999999 -10.569899999999995 7.48559 L -12.161259999999995 1.55335 L -12.161259999999995 1.55335 C -12.362909999999996 0.80165 -12.159209999999995 -0.0008200000000000429 -11.623459999999994 -0.56534 C -11.087709999999994 -1.1298599999999999 -10.296979999999994 -1.37522 -9.535769999999994 -1.21313 L -1.0320299999999936 0.5975900000000001 L -1.0320299999999936 0.5975900000000001 C -0.6236799999999936 0.68454 -0.20732999999999357 0.72838 0.2101700000000064 0.72838 L 0.2101700000000064 0.72838 L 0.2101700000000064 0.72838 C 0.6346600000000064 0.72838 1.0579700000000063 0.6837 1.4731000000000065 0.59506 L 9.784430000000006 -1.17942 L 9.784430000000006 -1.17942 C 10.565000000000005 -1.3460699999999999 11.375650000000006 -1.08944 11.918100000000006 -0.5039399999999999 C 12.460550000000007 0.08155000000000001 12.654660000000007 0.9094100000000002 12.429010000000005 1.6750099999999999 L 10.722290000000005 7.465590000000001 L 10.722290000000005 7.465590000000001 C 10.621800000000004 7.806540000000001 10.742870000000005 8.17408 11.026330000000005 8.38855 C 11.309780000000005 8.60302 11.696400000000006 8.61961 11.997190000000005 8.43021 L 18.761830000000003 4.170660000000001 L 18.761830000000003 4.170660000000001 C 19.418540000000004 3.7571400000000006 19.947720000000004 3.1696100000000005 20.290530000000004 2.473370000000001 L 22.772630000000003 -2.5676099999999993 L 22.772630000000003 -2.5676099999999993 C 22.971220000000002 -2.970929999999999 22.949030000000004 -3.447939999999999 22.713850000000004 -3.831079999999999 C 22.478670000000005 -4.214219999999999 22.063390000000005 -4.449939999999999 21.613860000000003 -4.455439999999999 L 14.768070000000002 -4.539179999999999 L 14.768070000000002 -4.539179999999999 C 14.067700000000002 -4.547749999999999 13.504440000000002 -5.117939999999999 13.504440000000002 -5.818369999999999 L 13.504440000000002 -7.2628499999999985 L 13.504440000000002 -7.2628499999999985 C 13.504440000000002 -7.745069999999998 13.253890000000002 -8.192659999999998 12.842810000000002 -8.444769999999998 C 12.431740000000001 -8.696879999999998 11.919200000000002 -8.717289999999998 11.489380000000002 -8.498679999999998 L 1.292460000000002 -3.3122999999999987 L 1.292460000000002 -3.3122999999999987 C 1.000740000000002 -3.1639199999999987 0.678090000000002 -3.0865799999999988 0.3508000000000019 -3.0865799999999988 L 0.1974900000000019 -3.0865799999999988 L 0.1974900000000019 -3.0865799999999988 C -0.20699999999999813 -3.0865799999999988 -0.6057999999999981 -3.1819399999999987 -0.9665299999999981 -3.364929999999999 L -11.225549999999998 -8.56899 L -11.225549999999998 -8.56899 C -11.627209999999998 -8.772739999999999 -12.105869999999998 -8.75329 -12.489679999999998 -8.517619999999999 C -12.873489999999999 -8.281949999999998 -13.107369999999998 -7.863869999999999 -13.107369999999998 -7.4134899999999995 L -13.107369999999998 -5.76941 L -13.107369999999998 -5.76941 C -13.107369999999998 -5.09852 -13.651239999999998 -4.55465 -14.322129999999998 -4.55465 z" stroke-linecap="round" />
</g> -->

<g transform="matrix(0.8319099156 0 0 0.8319099156 39.0070023846 30.395326459)" id="mPerKeIiCr7W-fB9zuePq"  >
<!-- <path style="stroke: rgb(53,237,61); stroke-width: 0; stroke-dasharray: none; stroke-linecap: butt; stroke-dashoffset: 0; stroke-linejoin: miter; stroke-miterlimit: 4; fill: rgb(0,0,0); fill-rule: nonzero; opacity: 0.1;"  transform=" translate(0, 0)" d="M -2.22916 4.55731 L -3.26863 5.27754 L -4.39691 5.96014 C -4.39691 5.96014 -4.8785300000000005 6.39028 -5.23873 6.39028 C -5.598940000000001 6.39028 -5.94857 6.1518999999999995 -5.94857 6.1518999999999995 L 5.4411000000000005 -6.3903 L 5.687570000000001 -6.16999 L 5.687570000000001 -6.16999 C 5.713930000000001 -6.1464300000000005 5.734700000000001 -6.1173 5.7483900000000006 -6.084700000000001 L 5.853650000000001 -5.834010000000001 L 5.853650000000001 -5.834010000000001 C 5.969210000000001 -5.558780000000001 5.979630000000001 -5.250690000000001 5.8829400000000005 -4.968280000000001 L 5.611870000000001 -4.176610000000001 L 4.271520000000001 -1.421040000000001 L 3.2208200000000007 0.6103999999999989 L 2.4406600000000007 1.622329999999999 L 1.2390800000000006 2.427629999999999 L -0.6829799999999995 3.593729999999999 z" stroke-linecap="round" /> -->
</g>
<g transform="matrix(-0.8319099156 0 0 0.8319099156 10.88512177 30.395326459)" id="Jm9ZrlM0A4BT0oXmw44hf"  >
<!-- <path style="stroke: rgb(53,237,61); stroke-width: 0; stroke-dasharray: none; stroke-linecap: butt; stroke-dashoffset: 0; stroke-linejoin: miter; stroke-miterlimit: 4; fill: rgb(0,0,0); fill-rule: nonzero; opacity: 0.1;"  transform=" translate(0, 0)" d="M -1.68063 4.68224 L -2.8450300000000004 5.27754 L -4.08127 5.9879 C -4.08127 5.9879 -4.74643 6.39028 -5.10664 6.39028 C -5.46685 6.39028 -5.98306 6.39028 -5.98306 6.39028 L 5.56114 -6.390300000000001 L 5.84284 -5.986980000000001 L 5.84284 -5.986980000000001 C 5.85732 -5.9662500000000005 5.86844 -5.943380000000001 5.8758 -5.919190000000001 L 5.92918 -5.743840000000001 L 5.92918 -5.743840000000001 C 6.00343 -5.499950000000001 6.000859999999999 -5.239130000000001 5.92181 -4.996750000000001 L 5.697229999999999 -4.308140000000002 L 4.64812 -1.4210400000000014 L 3.8827399999999996 0.6643899999999987 L 3.1696199999999997 1.8721899999999987 L 2.4288199999999995 2.493179999999999 L 1.7875799999999995 2.8163099999999988 L -0.07895000000000052 3.857479999999999 z" stroke-linecap="round" /> -->
</g>
</svg>
